<svg width="562" height="562" viewBox="0 0 562 562" fill="none" xmlns="http://www.w3.org/2000/svg">
<path d="M185.674 85.1432C185.674 85.1432 100.508 128.541 58.0322 195.408C15.5562 262.274 18.917 348.272 70.5311 412.092C122.145 475.913 220.799 467.584 303.401 508.048C386.004 548.512 477.138 540.172 516.197 454.478C555.256 368.785 496.358 336.717 486.242 237.569C476.126 138.421 386.735 -6.74379 185.674 85.1432Z" fill="#1368DA"/>
<path opacity="0.7" d="M185.674 85.1432C185.674 85.1432 100.508 128.541 58.0322 195.408C15.5562 262.274 18.917 348.272 70.5311 412.092C122.145 475.913 220.799 467.584 303.401 508.048C386.004 548.512 477.138 540.172 516.197 454.478C555.256 368.785 496.358 336.717 486.242 237.569C476.126 138.421 386.735 -6.74379 185.674 85.1432Z" fill="white"/>
<path d="M525.133 307.414H520.468V306.616C520.465 304.438 519.598 302.35 518.058 300.81C516.518 299.269 514.43 298.403 512.251 298.4H509.093C506.913 298.4 504.822 299.265 503.279 300.806C501.737 302.346 500.868 304.436 500.865 306.616V307.414H496.212C495.59 307.413 494.974 307.534 494.399 307.772C493.825 308.009 493.302 308.357 492.863 308.797C492.423 309.237 492.074 309.759 491.837 310.334C491.6 310.909 491.479 311.525 491.48 312.146V333.705C491.48 334.96 491.979 336.163 492.866 337.051C493.753 337.938 494.957 338.437 496.212 338.437H525.133C526.387 338.434 527.589 337.934 528.475 337.048C529.362 336.161 529.862 334.959 529.865 333.705V312.146C529.865 310.891 529.366 309.688 528.479 308.8C527.591 307.913 526.388 307.414 525.133 307.414ZM503.113 306.616C503.116 305.032 503.748 303.514 504.869 302.395C505.99 301.276 507.509 300.648 509.093 300.648H512.251C513.834 300.648 515.353 301.277 516.472 302.396C517.591 303.515 518.22 305.033 518.22 306.616V307.414H503.113V306.616Z" fill="#263238"/>
<path d="M519.288 320.722H513.331V314.776H508.003V320.722H502.046V326.061H508.003V332.007H513.331V326.061H519.288V320.722Z" fill="white"/>
<path d="M515.916 178.941C514.989 178.941 514.072 178.759 513.216 178.404C512.36 178.049 511.583 177.529 510.928 176.873C510.274 176.217 509.755 175.439 509.401 174.583C509.048 173.727 508.867 172.809 508.868 171.882V152.864C508.867 151.938 509.048 151.02 509.401 150.164C509.755 149.308 510.274 148.529 510.928 147.874C511.583 147.218 512.36 146.698 513.216 146.343C514.072 145.988 514.989 145.806 515.916 145.806C516.842 145.806 517.759 145.988 518.615 146.343C519.471 146.698 520.248 147.218 520.903 147.874C521.557 148.529 522.076 149.308 522.43 150.164C522.783 151.02 522.965 151.938 522.963 152.864V171.849C522.969 172.778 522.791 173.699 522.44 174.56C522.088 175.42 521.57 176.202 520.915 176.861C520.26 177.52 519.481 178.043 518.623 178.4C517.765 178.757 516.845 178.941 515.916 178.941Z" fill="white" stroke="#263238" stroke-linecap="round" stroke-linejoin="round"/>
<path d="M515.916 178.941C514.989 178.941 514.072 178.758 513.216 178.403C512.36 178.048 511.583 177.528 510.928 176.873C510.274 176.217 509.755 175.439 509.401 174.582C509.048 173.726 508.867 172.809 508.868 171.882V162.384H522.963V171.882C522.965 172.809 522.783 173.726 522.43 174.582C522.076 175.439 521.558 176.217 520.903 176.873C520.248 177.528 519.471 178.048 518.615 178.403C517.759 178.758 516.842 178.941 515.916 178.941Z" fill="#263238" stroke="#263238" stroke-linecap="round" stroke-linejoin="round"/>
<path d="M480.465 150.931C479.886 150.207 479.455 149.376 479.198 148.485C478.94 147.595 478.862 146.662 478.966 145.74C479.071 144.819 479.356 143.928 479.806 143.117C480.256 142.307 480.862 141.593 481.589 141.017L496.392 129.125C497.858 127.96 499.726 127.424 501.587 127.635C503.448 127.846 505.149 128.786 506.317 130.249C507.482 131.713 508.017 133.58 507.807 135.439C507.596 137.298 506.656 138.997 505.193 140.163L490.379 152.044C489.655 152.622 488.824 153.053 487.934 153.31C487.044 153.567 486.112 153.647 485.191 153.543C484.27 153.44 483.379 153.156 482.568 152.708C481.757 152.259 481.042 151.656 480.465 150.931Z" fill="white" stroke="#263238" stroke-linecap="round" stroke-linejoin="round"/>
<path d="M480.465 150.931C479.885 150.207 479.454 149.376 479.197 148.485C478.94 147.595 478.861 146.662 478.966 145.74C479.07 144.819 479.356 143.928 479.806 143.117C480.256 142.307 480.862 141.593 481.589 141.017L488.996 135.071L497.819 146.075L490.412 152.01C489.689 152.596 488.858 153.033 487.966 153.296C487.074 153.559 486.138 153.642 485.214 153.542C484.289 153.442 483.393 153.159 482.578 152.711C481.763 152.263 481.045 151.658 480.465 150.931Z" fill="#263238" stroke="#263238" stroke-linecap="round" stroke-linejoin="round"/>
<path d="M409.979 99.1819C409.1 99.1823 408.244 99.4574 407.529 99.9687L391.152 87.2563C391.955 85.7708 392.331 84.0924 392.24 82.4064C392.149 80.7204 391.593 79.0925 390.635 77.7023L400.639 64.9112C401.485 65.2376 402.414 65.2845 403.289 65.0449C404.164 64.8053 404.94 64.2918 405.502 63.5796C406.064 62.8674 406.384 61.994 406.414 61.0871C406.444 60.1803 406.182 59.2876 405.668 58.5399C405.154 57.7922 404.414 57.2287 403.557 56.932C402.7 56.6352 401.77 56.6207 400.903 56.8906C400.037 57.1605 399.28 57.7007 398.743 58.432C398.206 59.1633 397.917 60.0473 397.919 60.9547C397.913 61.8291 398.185 62.6828 398.694 63.3938L388.96 75.8589C387.655 74.7598 386.069 74.0461 384.381 73.7979C382.693 73.5497 380.969 73.7769 379.402 74.4539C377.836 75.1309 376.489 76.2309 375.513 77.6306C374.537 79.0303 373.97 80.6743 373.876 82.3781H362.501C362.377 81.3684 361.895 80.4368 361.142 79.7527C360.389 79.0685 359.416 78.6772 358.399 78.6498C357.382 78.6224 356.389 78.9609 355.6 79.6035C354.812 80.2462 354.28 81.1505 354.101 82.1521C353.923 83.1536 354.11 84.1859 354.628 85.0613C355.146 85.9367 355.962 86.5971 356.925 86.9225C357.889 87.2479 358.938 87.2166 359.881 86.8344C360.823 86.4522 361.598 85.7444 362.063 84.8397H374.09C374.442 86.474 375.232 87.9814 376.377 89.1998C377.522 90.4182 378.977 91.3015 380.586 91.7547C382.195 92.2078 383.897 92.2137 385.509 91.7716C387.122 91.3295 388.583 90.4563 389.736 89.2458L406.023 101.913C405.701 102.758 405.659 103.684 405.901 104.555C406.143 105.426 406.657 106.196 407.369 106.754C408.08 107.312 408.951 107.627 409.855 107.655C410.758 107.682 411.647 107.42 412.391 106.907C413.135 106.393 413.695 105.655 413.989 104.8C414.284 103.946 414.298 103.019 414.028 102.157C413.759 101.294 413.221 100.54 412.492 100.004C411.764 99.4692 410.883 99.181 409.979 99.1819Z" fill="#263238"/>
<path d="M77.3086 179.076C75.9471 179.073 74.6423 178.531 73.6797 177.568C72.717 176.605 72.1748 175.3 72.1719 173.939V131.227H82.4452V173.939C82.4452 175.301 81.904 176.608 80.9407 177.571C79.9774 178.535 78.6709 179.076 77.3086 179.076Z" fill="white" stroke="#263238" stroke-linecap="round" stroke-linejoin="round"/>
<path d="M77.3086 179.076C75.9471 179.073 74.6423 178.531 73.6797 177.568C72.717 176.606 72.1748 175.301 72.1719 173.939V147.671H82.4452V173.939C82.4452 175.302 81.904 176.608 80.9407 177.571C79.9774 178.535 78.6709 179.076 77.3086 179.076Z" fill="#263238" stroke="#263238" stroke-linecap="round" stroke-linejoin="round"/>
<path d="M83.9179 128.732H70.7109V132.475H83.9179V128.732Z" fill="white" stroke="#263238" stroke-linecap="round" stroke-linejoin="round"/>
<path d="M61.7412 179.076C60.3798 179.073 59.0749 178.531 58.1123 177.568C57.1496 176.605 56.6075 175.3 56.6045 173.939V131.227H66.8778V173.939C66.8778 175.301 66.3367 176.608 65.3733 177.571C64.41 178.535 63.1035 179.076 61.7412 179.076Z" fill="white" stroke="#263238" stroke-linecap="round" stroke-linejoin="round"/>
<path d="M61.7412 179.076C60.3798 179.073 59.0749 178.531 58.1123 177.568C57.1496 176.606 56.6075 175.301 56.6045 173.939V147.671H66.8778V173.939C66.8778 175.302 66.3367 176.608 65.3733 177.571C64.41 178.535 63.1035 179.076 61.7412 179.076Z" fill="#263238" stroke="#263238" stroke-linecap="round" stroke-linejoin="round"/>
<path d="M68.3506 128.732H55.1436V132.475H68.3506V128.732Z" fill="white" stroke="#263238" stroke-linecap="round" stroke-linejoin="round"/>
<path d="M209.941 86.627L214.032 76.8033C214.102 76.645 214.217 76.5112 214.363 76.419C214.509 76.3269 214.68 76.2806 214.853 76.2862C215.026 76.2948 215.192 76.3567 215.329 76.4633C215.466 76.5699 215.566 76.7161 215.617 76.8819L220.574 93.2249L224.35 81.1869C224.402 81.0175 224.506 80.8688 224.647 80.7618C224.789 80.6549 224.96 80.5952 225.137 80.5911C225.312 80.5959 225.482 80.6516 225.626 80.7514C225.769 80.8513 225.881 80.9909 225.946 81.1531L228.048 87.2003H239.412C241.738 84.7698 243.09 81.5699 243.211 78.2083C243.233 75.0683 242.093 72.031 240.012 69.6798C237.931 67.3286 235.054 65.8292 231.935 65.4696C228.816 65.11 225.673 65.9155 223.112 67.7315C220.55 69.5474 218.749 72.2458 218.056 75.3083C217.342 72.2673 215.535 69.5947 212.979 67.799C210.423 66.0033 207.296 65.2097 204.193 65.5691C201.09 65.9286 198.227 67.416 196.149 69.7484C194.071 72.0809 192.923 75.0957 192.923 78.2195C193.048 81.3327 194.216 84.3136 196.239 86.6832L209.941 86.627Z" fill="#263238"/>
<path d="M227.453 88.8863C227.278 88.887 227.107 88.8332 226.964 88.7325C226.821 88.6318 226.713 88.4892 226.655 88.3243L225.193 84.1205L221.36 96.3384C221.306 96.5105 221.198 96.6608 221.053 96.7679C220.907 96.8749 220.732 96.9331 220.551 96.9341C220.37 96.9335 220.194 96.8739 220.05 96.7644C219.906 96.6549 219.802 96.5014 219.753 96.3272L214.684 79.6133L211.312 87.796C211.248 87.9489 211.14 88.0795 211.002 88.1715C210.864 88.2634 210.702 88.3127 210.536 88.313H197.599C200.375 91.4153 203.837 94.1578 206.423 96.7093C210.334 100.576 214.167 104.577 218.157 108.309C223.271 103.262 228.419 98.193 233.488 93.1462C234.893 91.7412 236.422 90.3475 237.838 88.8863H227.453Z" fill="#263238"/>
<path d="M37.8436 340.115L43.355 342.027L49.3186 324.834L43.8071 322.922L37.8436 340.115Z" fill="white" stroke="#263238" stroke-miterlimit="10"/>
<path d="M35.2303 342.844L43.7363 345.795L44.8598 342.556L36.3537 339.606L35.2303 342.844Z" fill="white" stroke="#263238" stroke-miterlimit="10"/>
<path d="M37.7294 327.347L51.354 332.073L62.1577 300.926L48.5331 296.2L37.7294 327.347Z" fill="white" stroke="#263238" stroke-miterlimit="10"/>
<path d="M44.3542 314.023L54.4106 317.511L60.3742 300.319L50.3177 296.83L44.3542 314.023Z" fill="#263238" stroke="#263238" stroke-miterlimit="10"/>
<path d="M42.5755 326.486L48.0869 328.397L54.0505 311.205L48.5391 309.293L42.5755 326.486Z" fill="#263238" stroke="#263238" stroke-miterlimit="10"/>
<path d="M36.7676 327.02L52.3354 332.42L53.6873 328.523L38.1194 323.123L36.7676 327.02Z" fill="white" stroke="#263238" stroke-miterlimit="10"/>
<path d="M51.8556 295.552L59.9688 298.366L61.77 293.173L53.6568 290.359L51.8556 295.552Z" fill="white" stroke="#263238" stroke-miterlimit="10"/>
<path d="M47.2309 296.845L62.7988 302.245L64.1507 298.347L48.5828 292.947L47.2309 296.845Z" fill="white" stroke="#263238" stroke-miterlimit="10"/>
<path d="M57.7959 291.06L64.3151 272.244" stroke="#263238" stroke-miterlimit="10"/>
<path d="M420.264 524.908C452.748 524.908 479.083 518.97 479.083 511.645C479.083 504.319 452.748 498.381 420.264 498.381C387.779 498.381 361.445 504.319 361.445 511.645C361.445 518.97 387.779 524.908 420.264 524.908Z" fill="#263238" stroke="#263238" stroke-linecap="round" stroke-linejoin="round"/>
<path d="M374.91 211.852C374.91 211.852 366.953 216.718 367.042 218.854C367.132 220.99 364.075 259.936 363.727 264.803C363.378 269.67 358.747 279.719 358.388 284.282C358.028 288.846 359.174 293.42 360.512 295.522C361.85 297.624 366.761 304.346 366.761 304.346L379.968 283.945C380.292 279.49 380.36 275.021 380.171 270.558C379.968 260.835 374.91 211.852 374.91 211.852Z" fill="white" stroke="#263238" stroke-linecap="round" stroke-linejoin="round"/>
<path d="M425.726 115.345C425.726 115.345 411.676 114.446 403.673 124.191C395.671 133.936 397.39 148.84 397.334 153.415C397.278 157.989 383.689 171.399 385.195 176.861C386.701 182.324 390.702 182.942 389.421 187.506C388.14 192.069 379.777 194.812 380.991 200.6C382.205 206.389 386.611 214.594 386.611 214.594L467.539 215.145C467.539 215.145 470.428 206.625 467.348 200.229C464.268 193.834 459.896 191.721 460.604 188.675C461.312 185.628 465.224 178.322 463.718 172.849C462.211 167.375 456.974 165.857 456.423 156.112C455.872 146.367 454.433 130.26 446.7 122.392C438.967 114.524 425.726 115.345 425.726 115.345Z" fill="#263238" stroke="#263238" stroke-linecap="round" stroke-linejoin="round"/>
<path d="M400.841 490.884C398.356 495.673 395.339 500.168 391.849 504.282C386.679 510.071 381.666 513.117 381.834 516.163C382.003 519.209 393.288 519.805 399.256 517.669C405.225 515.534 409.563 511.274 410.766 510.925C411.969 510.577 415.329 510.925 415.408 506.654C415.487 502.383 414.835 490.221 414.835 490.221L400.841 490.884Z" fill="white" stroke="#263238" stroke-linecap="round" stroke-linejoin="round"/>
<path d="M399.234 517.669C405.213 515.534 409.541 511.274 410.743 510.925C411.946 510.577 415.307 510.925 415.386 506.654C415.386 504.406 415.262 499.91 415.105 496.234C414.22 497.893 412.911 499.287 411.312 500.275C409.712 501.262 407.879 501.807 406 501.854C406 501.854 405.888 499.719 402.628 496.077C400.526 493.694 398.402 495.571 397.166 497.201L396.165 498.707L396.087 498.853C394.789 500.767 393.37 502.596 391.838 504.327C386.667 510.116 381.654 513.162 381.823 516.208C381.992 519.254 393.265 519.805 399.234 517.669Z" fill="white" stroke="#263238" stroke-linecap="round" stroke-linejoin="round"/>
<path d="M442.486 490.862C445.506 495.668 449.008 500.153 452.939 504.249C458.727 510.026 464.066 513.061 464.179 516.107C464.291 519.153 453.119 519.76 446.914 517.635C440.71 515.511 435.921 511.251 434.696 510.948C433.471 510.644 430.122 510.948 429.593 506.699C429.065 502.45 428.402 490.266 428.402 490.266L442.486 490.862Z" fill="white" stroke="#263238" stroke-linecap="round" stroke-linejoin="round"/>
<path d="M446.959 517.635C440.766 515.511 435.966 511.251 434.741 510.948C433.516 510.644 430.166 510.948 429.638 506.699C429.357 504.451 429.042 499.955 428.806 496.268C429.846 497.916 431.274 499.284 432.965 500.252C434.656 501.22 436.559 501.759 438.506 501.821C438.506 501.821 438.394 499.685 441.238 496.032C443.092 493.66 445.419 495.526 446.858 497.156C447.229 497.651 447.611 498.145 447.982 498.662L448.083 498.808C449.593 500.719 451.207 502.547 452.916 504.282C458.705 510.06 464.044 513.094 464.156 516.14C464.268 519.186 453.163 519.76 446.959 517.635Z" fill="white" stroke="#263238" stroke-linecap="round" stroke-linejoin="round"/>
<path d="M376.394 330.231C376.394 330.231 378.271 393.523 380.766 406C383.262 418.476 394.401 489.985 394.401 489.985C397.805 491.426 401.472 492.145 405.168 492.098H417.341L418.465 438.843L418.881 361.546L424.985 492.391C424.985 492.391 441.755 492.986 443.564 492.683C445.374 492.379 446.88 492.076 446.88 492.076L457.659 409.293L463.83 354.217L464.167 332.31C464.167 332.31 412.643 330.523 397.671 329.309C382.7 328.095 376.54 327.792 376.54 327.792L376.394 330.231Z" fill="#1368DA" stroke="#263238" stroke-linecap="round" stroke-linejoin="round"/>
<path d="M445.97 441.979C445.835 443.036 445.7 444.013 445.542 444.913" stroke="#263238" stroke-linecap="round" stroke-linejoin="round"/>
<path d="M447.352 365.783C447.352 365.783 448.398 410.878 446.565 435.359" stroke="#263238" stroke-linecap="round" stroke-linejoin="round"/>
<path d="M392.108 362.164C392.108 362.164 393.401 391.995 394.682 398.683" stroke="#263238" stroke-linecap="round" stroke-linejoin="round"/>
<path d="M440.136 343.157V365.929C443.054 366.715 446.038 367.23 449.05 367.469C453.669 367.773 462.29 367.469 462.29 367.469L462.908 358.848L440.136 343.157Z" fill="#263238" stroke="#263238" stroke-linecap="round" stroke-linejoin="round"/>
<path d="M377.35 360.692C377.35 360.692 389.05 364.39 393.974 364.693C398.897 364.997 403.505 365.615 403.505 365.615L402.898 359.466L376.731 357.005L377.35 360.692Z" fill="#263238" stroke="#263238" stroke-linecap="round" stroke-linejoin="round"/>
<path d="M412.868 187.787L403.685 198.139L378.215 216.718L383.644 329.332C383.644 329.332 403.943 334.795 421.365 336.312C438.787 337.829 461.189 333.839 461.189 333.839L457.895 215.819C457.895 215.819 447.982 201.207 442.901 197.262C437.821 193.317 435.494 189.664 428.761 189.057C422.028 188.45 412.868 187.787 412.868 187.787Z" fill="#1368DA" stroke="#263238" stroke-linecap="round" stroke-linejoin="round"/>
<path d="M402.213 193.328L374.911 211.908L379.193 280.37L377.743 287.249L366.267 300.468L371.156 323.689L368.976 356.454C368.976 356.454 379.823 360.107 387.173 361.006C392.647 361.593 398.147 361.897 403.651 361.917L404.595 317.181C404.595 317.181 408.226 242.919 408.653 239.625C409.08 236.332 412.868 187.921 412.868 187.921L402.213 193.328Z" fill="white" stroke="#263238" stroke-linecap="round" stroke-linejoin="round"/>
<path d="M402.651 196.126L389.433 229.273L403.696 235.197L390.231 237.647L402.156 284.372" stroke="#263238" stroke-linecap="round" stroke-linejoin="round"/>
<path d="M410.575 178.963C410.575 178.963 415.318 210.603 419.05 217.909C422.782 225.215 423.838 227.643 423.838 227.643C423.838 227.643 431.954 202.983 433.584 199.33C435.213 195.677 436.956 182.593 436.956 182.593C436.956 182.593 420.781 187.775 410.575 178.963Z" fill="white" stroke="#263238" stroke-linecap="round" stroke-linejoin="round"/>
<path d="M410.575 178.963C410.575 178.963 411.002 181.84 411.699 186.055C414.071 187.865 420.354 192.338 424.996 192.575C428.537 192.754 433.033 190.461 436.023 188.629C436.562 185.313 436.933 182.593 436.933 182.593C436.933 182.593 420.781 187.775 410.575 178.963Z" fill="#263238" stroke="#263238" stroke-linecap="round" stroke-linejoin="round"/>
<path d="M404.134 157.09C404.134 157.09 400.897 152.482 398.717 157.09C396.536 161.699 402.089 168.521 403.64 169.454C408.046 172.073 406.877 167.206 406.877 167.206L404.134 157.09Z" fill="white" stroke="#263238" stroke-linecap="round" stroke-linejoin="round"/>
<path d="M444.34 159.08C444.34 159.08 447.071 154.314 449.746 158.81C452.422 163.306 447.6 170.376 446.161 171.376C442.047 174.22 442.699 169.342 442.699 169.342L444.34 159.08Z" fill="white" stroke="#263238" stroke-linecap="round" stroke-linejoin="round"/>
<path d="M403.37 153.021C403.37 153.021 415.105 150.279 421.017 146.783C424.638 144.596 427.796 141.721 430.312 138.319C430.312 138.319 435.393 147.918 439.866 151.807C444.34 155.696 445.273 155.921 445.273 155.921C445.273 155.921 443.126 172.725 440.698 178.57C438.27 184.415 430.346 190.102 422.95 188.461C418.746 187.539 411.463 184.505 409.35 179.39C407.237 174.276 403.37 153.021 403.37 153.021Z" fill="white" stroke="#263238" stroke-linecap="round" stroke-linejoin="round"/>
<path d="M433.313 165.936C429.672 166.026 417.476 166.049 411.182 162.25C408.659 160.781 406.297 159.052 404.134 157.09C404.359 158.214 404.629 159.619 404.921 161.081L406.292 162.081L409.732 175.074L408.124 175.423C408.464 176.751 408.872 178.06 409.35 179.346C411.463 184.46 418.746 187.495 422.95 188.416C430.335 190.046 438.236 184.392 440.687 178.559C440.108 177.425 439.938 176.128 440.203 174.883C440.912 171.208 441.788 164.767 441.788 164.767L444.295 162.519C444.43 161.699 444.542 160.912 444.655 160.193C441.62 162.294 435.932 165.869 433.313 165.936Z" fill="#1368DA" stroke="#263238" stroke-linecap="round" stroke-linejoin="round"/>
<path d="M419.927 160.507C419.927 160.507 416.004 155.741 410.856 156.18" stroke="#263238" stroke-linecap="round" stroke-linejoin="round"/>
<path d="M430.031 161.451C431.283 160.136 432.838 159.146 434.56 158.57C436.282 157.994 438.12 157.849 439.911 158.147" stroke="#263238" stroke-linecap="round" stroke-linejoin="round"/>
<path d="M408.597 153.797C408.597 153.797 414.217 151.549 419.196 152.605" stroke="#263238" stroke-linecap="round" stroke-linejoin="round"/>
<path d="M430.492 153.83C431.973 153.074 433.65 152.791 435.297 153.02C436.944 153.249 438.48 153.98 439.698 155.112" stroke="#263238" stroke-linecap="round" stroke-linejoin="round"/>
<path d="M416.15 158.945C416.176 159.117 416.167 159.293 416.124 159.463C416.081 159.632 416.005 159.791 415.901 159.931C415.796 160.071 415.665 160.189 415.515 160.278C415.365 160.367 415.199 160.426 415.026 160.451C414.674 160.411 414.351 160.239 414.121 159.97C413.892 159.701 413.773 159.354 413.79 159.001C413.763 158.828 413.77 158.651 413.813 158.481C413.855 158.311 413.93 158.152 414.035 158.011C414.14 157.871 414.271 157.753 414.422 157.664C414.573 157.576 414.74 157.518 414.914 157.495C415.264 157.537 415.586 157.709 415.815 157.978C416.044 158.247 416.164 158.592 416.15 158.945Z" fill="#263238"/>
<path d="M436.506 160.406C436.536 160.579 436.53 160.757 436.49 160.928C436.449 161.099 436.373 161.26 436.268 161.401C436.163 161.542 436.03 161.66 435.878 161.748C435.725 161.836 435.556 161.892 435.382 161.912C435.031 161.875 434.708 161.706 434.478 161.438C434.248 161.171 434.129 160.826 434.145 160.473C434.115 160.3 434.12 160.122 434.161 159.951C434.202 159.78 434.277 159.619 434.383 159.478C434.488 159.337 434.621 159.219 434.773 159.131C434.926 159.043 435.094 158.988 435.269 158.967C435.62 159.004 435.943 159.174 436.173 159.441C436.403 159.709 436.522 160.054 436.506 160.406Z" fill="#263238"/>
<path d="M466.775 205.399C466.775 205.399 473.328 208.434 475.767 213.267C478.206 218.101 497.707 270.468 497.617 274.424C497.528 278.381 491.076 282.944 485.029 283.562C478.982 284.181 470.169 273.222 468.854 271.401C467.539 269.58 467.303 248.269 467.303 248.269L466.775 205.399Z" fill="white" stroke="#263238" stroke-linecap="round" stroke-linejoin="round"/>
<path d="M435.888 191.417L439.08 296.106L440.204 362.141C446.324 363.646 452.594 364.457 458.896 364.558C464.152 364.668 469.378 363.736 474.272 361.815C474.272 361.815 472.362 320.733 472.024 314.034C471.687 307.335 469.462 294.555 469.462 294.555L466.809 205.4C466.809 205.4 442.115 193.845 435.888 191.417Z" fill="white" stroke="#263238" stroke-linecap="round" stroke-linejoin="round"/>
<path d="M442.901 197.194L454.22 234.118L443.902 236.916L453.939 241.783L441.417 281.562" fill="white"/>
<path d="M442.901 197.194L454.22 234.118L443.902 236.916L453.939 241.783L441.417 281.562" stroke="#263238" stroke-linecap="round" stroke-linejoin="round"/>
<path d="M450.792 230.971L436.753 298.231C436.753 298.231 446.352 301.266 453.366 301.603C460.379 301.94 474.991 301.895 474.991 301.895L489.603 239.198C489.603 239.198 460.84 236.445 450.792 230.971Z" fill="#263238" stroke="#263238" stroke-linecap="round" stroke-linejoin="round"/>
<path d="M455.681 293.656L456.142 272.637L467.281 274.986C467.281 274.986 459.919 291.206 455.681 293.656Z" fill="white" stroke="#263238" stroke-linecap="round" stroke-linejoin="round"/>
<path d="M464.212 265.039C464.212 265.039 461.245 260.79 460.29 259.869C459.334 258.947 454.613 256.227 453.703 256.227C452.792 256.227 447.903 255.923 446.959 255.923C446.015 255.923 444.947 258.059 445.914 258.969C446.88 259.88 450.241 260.183 450.241 260.183L452.545 263.555L442.148 262.645C442.148 262.645 440.417 264.477 440.811 266.017C441.105 267.06 441.481 268.079 441.935 269.063C441.895 271.298 442.012 273.532 442.283 275.751C442.688 277.583 444.531 278.19 447.06 279.707C449.589 281.225 458.053 280.314 458.053 280.314H461.964L464.212 265.039Z" fill="white" stroke="#263238" stroke-linecap="round" stroke-linejoin="round"/>
<path d="M489.558 267.152L462.582 263.521C462.582 263.521 460.481 280.876 458.356 286.653C456.232 292.431 455.681 293.656 455.681 293.656C455.681 293.656 483.95 293.026 490.615 292.42C497.28 291.813 501.023 287.845 500.731 282.371C500.439 276.897 497.101 271.412 497.101 271.412" fill="white"/>
<path d="M489.558 267.152L462.582 263.521C462.582 263.521 460.481 280.876 458.356 286.653C456.232 292.431 455.681 293.656 455.681 293.656C455.681 293.656 483.95 293.026 490.615 292.42C497.28 291.813 501.023 287.845 500.731 282.371C500.439 276.897 497.101 271.412 497.101 271.412" stroke="#263238" stroke-linecap="round" stroke-linejoin="round"/>
<path d="M377.069 286.103C377.069 286.103 383.363 290.048 384.937 291.273C386.51 292.499 386.645 300.4 387.645 301.918C388.646 303.435 387.466 304.357 385.645 304.357C383.824 304.357 381.07 298.579 381.07 298.579L380.958 296.444L368.099 300.715L364.727 294.938C364.727 294.938 368.549 286.103 377.069 286.103Z" fill="white" stroke="#263238" stroke-linecap="round" stroke-linejoin="round"/>
<path d="M283.394 524.908C315.879 524.908 342.213 518.97 342.213 511.645C342.213 504.32 315.879 498.382 283.394 498.382C250.909 498.382 224.575 504.32 224.575 511.645C224.575 518.97 250.909 524.908 283.394 524.908Z" fill="#263238" stroke="#263238" stroke-linecap="round" stroke-linejoin="round"/>
<path d="M329.332 196.464C329.332 196.464 337.043 235.163 338.414 242.323C339.786 249.483 342.303 266.5 345.158 273.964C348.013 281.427 347.08 290.981 345.653 293.667C344.221 296.002 342.577 298.199 340.741 300.232L331.165 287.744C331.165 287.744 325.466 226.553 325.252 217.887C325.039 209.221 329.332 196.464 329.332 196.464Z" fill="white" stroke="#263238" stroke-linecap="round" stroke-linejoin="round"/>
<path d="M334.413 286.215C334.413 286.215 340.482 290.003 341.55 291.611C342.618 293.218 343.382 295.264 342.55 297.006C341.719 298.748 337.189 304.008 336.042 305.031C334.896 306.054 333.929 301.974 333.794 298.467C333.66 294.96 334.413 286.215 334.413 286.215Z" fill="white" stroke="#263238" stroke-linecap="round" stroke-linejoin="round"/>
<path d="M301.772 498.427C301.772 498.427 320.801 507.677 322.004 509.476C323.207 511.274 318.868 513.668 307.527 513.668C296.186 513.668 295.848 512.173 291.341 510.982C286.834 509.79 277.853 510.678 276.639 507.992C275.425 505.306 277.538 496.055 277.538 496.055L301.772 498.427Z" fill="white" stroke="#263238" stroke-linecap="round" stroke-linejoin="round"/>
<path d="M276.504 503.203C276.504 503.203 292.24 512.757 290.858 516.039C289.475 519.322 278.1 519.322 272.11 518.422C266.119 517.523 253.384 509.43 252.709 506.485C252.035 503.541 253.721 499.022 262.949 498.134C272.177 497.246 276.504 503.203 276.504 503.203Z" fill="white" stroke="#263238" stroke-linecap="round" stroke-linejoin="round"/>
<path d="M324.274 347.091C324.274 347.091 315.282 416.341 313.72 426.491C312.158 436.64 307.201 452.758 304.526 464.999C303.01 472.198 301.884 479.473 301.154 486.793C300.88 488.875 300.93 490.987 301.3 493.054C301.682 496.044 301.738 498.427 301.738 498.427C297.736 499.431 293.662 500.13 289.554 500.517C284.485 500.821 277.617 500.821 277.617 500.821L275.369 481.42C275.369 481.42 277.044 452.758 278.033 444.407C279.022 436.056 280.079 370.381 280.034 368.582C279.989 366.784 279.595 350.969 279.595 350.969L310.224 347.687C310.224 347.687 314.406 335.75 320.689 336.346C326.972 336.942 324.274 347.091 324.274 347.091Z" fill="white" stroke="#263238" stroke-linecap="round" stroke-linejoin="round"/>
<path d="M320.734 336.346C314.45 335.75 310.269 347.687 310.269 347.687L279.606 350.969C279.606 350.969 279.708 355.173 279.809 359.489C283.08 359.781 286.103 359.95 288.688 359.95C298.512 359.934 308.328 359.382 318.092 358.298L319.407 344.54L321.464 358.556L322.88 358.095C323.757 351.419 324.319 347.069 324.319 347.069C324.319 347.069 327.017 336.942 320.734 336.346Z" fill="#263238" stroke="#263238" stroke-linecap="round" stroke-linejoin="round"/>
<path d="M247.617 349.182C247.617 349.182 247.617 349.609 247.685 350.385C248.101 358.545 250.573 405.832 251.326 414.554C252.169 424.108 247.954 434.55 248.168 443.205C248.381 451.86 250.416 498.73 250.416 498.73L252.664 506.486C252.664 506.486 257.947 502.912 263.016 502.912C268.085 502.912 276.504 503.204 276.504 503.204C276.504 503.204 276.942 496.932 276.897 494.853C276.852 492.773 276.661 485.299 276.661 485.299C276.661 485.299 285.237 446.195 285.754 442.912C286.272 439.63 292.926 382.913 292.881 381.092C292.836 379.272 294.286 353.925 294.286 353.925L247.617 349.182Z" fill="white" stroke="#263238" stroke-linecap="round" stroke-linejoin="round"/>
<path d="M293.971 359.894C294.162 356.432 294.297 353.959 294.297 353.959L247.617 349.182C247.617 349.182 247.617 349.609 247.685 350.385C247.685 351.374 247.808 352.936 247.921 354.881C258.835 356.837 277.774 359.916 288.688 359.916C290.487 359.95 292.24 359.928 293.971 359.894Z" fill="#263238" stroke="#263238" stroke-linecap="round" stroke-linejoin="round"/>
<path d="M282.012 165.902C282.012 165.902 277.078 166.734 275.201 168.937C273.319 171.08 271.627 173.381 270.143 175.816C269.884 176.648 240.862 194.261 240.862 194.261L242.953 278.246C242.953 278.246 243.819 291.183 242.279 295.589C239.677 304.253 238.415 313.262 238.536 322.307C238.805 333.041 239.502 350.407 239.502 350.407C239.502 350.407 272.717 357.016 288.689 357.016C298.513 356.993 308.329 356.434 318.092 355.341L319.408 341.572L321.408 355.622L328.231 353.374L333.851 311.786C333.851 311.786 337.762 302.974 337.717 301.041C337.673 299.107 338.707 296.635 337.571 294.982C336.436 293.33 334.413 290.026 334.413 290.026C334.413 290.026 329.332 198.948 329.332 196.464C329.332 193.98 314.305 179.401 313.192 178.851C312.079 178.3 305.223 168.105 296.332 165.363C287.441 162.62 282.012 165.902 282.012 165.902Z" fill="white" stroke="#263238" stroke-linecap="round" stroke-linejoin="round"/>
<path d="M272.964 178.57L269.637 208.817L283.305 215.167L279.888 225.429L314.068 285.496" stroke="#263238" stroke-linecap="round" stroke-linejoin="round"/>
<path d="M311.146 181.964L321.397 205.894L317.002 211.75L324.331 222.001L321.397 287.935" stroke="#263238" stroke-linecap="round" stroke-linejoin="round"/>
<path d="M280.742 170.039C280.991 175.94 282.062 181.777 283.923 187.382C286.879 195.644 306.47 252.642 306.47 252.642L319.137 297.242C319.137 297.242 317.463 251.81 317.418 249.888C317.373 247.966 307.819 184.898 307.819 184.898C307.819 184.898 306.189 174.715 303.615 170.859C301.041 167.004 283.788 159.844 280.742 170.039Z" fill="#1368DA" stroke="#263238" stroke-linecap="round" stroke-linejoin="round"/>
<path d="M279.528 165.633C279.528 165.633 271.558 166.453 272.963 178.57C274.368 190.687 276.223 198.948 276.223 198.948" stroke="#263238" stroke-width="2" stroke-linecap="round" stroke-linejoin="round"/>
<path d="M275.245 214.92C275.245 214.92 278.617 228.959 280.921 232.814C283.225 236.669 290.194 240.525 295.151 240.525" stroke="#263238" stroke-linecap="round" stroke-linejoin="round"/>
<path d="M285.901 211.616C285.901 211.616 289.61 227.858 290.228 230.892C290.846 233.927 288.801 239.693 285.361 245.504" stroke="#263238" stroke-linecap="round" stroke-linejoin="round"/>
<path d="M284.372 247.426C284.018 247.232 283.756 246.905 283.642 246.517C283.528 246.13 283.572 245.713 283.765 245.358L284.158 244.639C284.255 244.467 284.385 244.316 284.541 244.195C284.697 244.074 284.875 243.985 285.066 243.934C285.256 243.883 285.455 243.87 285.65 243.896C285.846 243.923 286.034 243.988 286.204 244.088C286.558 244.283 286.821 244.609 286.936 244.996C287.052 245.382 287.011 245.799 286.822 246.156L286.429 246.864C286.332 247.037 286.202 247.19 286.045 247.312C285.889 247.434 285.71 247.524 285.518 247.576C285.327 247.629 285.127 247.642 284.93 247.617C284.733 247.591 284.543 247.526 284.372 247.426Z" fill="#263238"/>
<path d="M296.995 240.829C296.995 241.027 296.955 241.223 296.877 241.405C296.8 241.588 296.686 241.753 296.544 241.89C296.401 242.028 296.232 242.135 296.047 242.205C295.861 242.276 295.664 242.309 295.466 242.301H294.645C294.241 242.292 293.856 242.124 293.574 241.834C293.292 241.544 293.136 241.154 293.139 240.75C293.138 240.552 293.176 240.356 293.252 240.174C293.329 239.992 293.441 239.827 293.583 239.689C293.725 239.551 293.893 239.444 294.078 239.373C294.262 239.302 294.459 239.27 294.657 239.277H295.477C295.882 239.289 296.266 239.457 296.549 239.747C296.832 240.036 296.992 240.424 296.995 240.829Z" fill="#263238"/>
<path d="M275.268 216.021L273.379 204.051C273.169 202.817 273.436 201.548 274.127 200.504C274.818 199.46 275.881 198.719 277.1 198.431V198.431C278.413 198.132 279.791 198.354 280.943 199.05C282.096 199.746 282.934 200.862 283.282 202.163L286.508 214.077" stroke="#263238" stroke-width="2" stroke-linecap="round" stroke-linejoin="round"/>
<path d="M319.698 224.112C322.403 223.841 324.343 221.092 324.031 217.973C323.719 214.854 321.272 212.545 318.567 212.816C315.861 213.087 313.921 215.835 314.234 218.955C314.546 222.074 316.993 224.383 319.698 224.112Z" fill="white" stroke="#263238" stroke-linecap="round" stroke-linejoin="round"/>
<path d="M305.875 170.68C305.875 170.68 316.699 185.91 320.149 216.955" stroke="#263238" stroke-width="2" stroke-linecap="round" stroke-linejoin="round"/>
<path d="M320.436 220.549C321.914 220.411 322.981 218.902 322.821 217.178C322.661 215.453 321.333 214.166 319.856 214.304C318.379 214.441 317.311 215.95 317.471 217.675C317.632 219.399 318.959 220.686 320.436 220.549Z" fill="white" stroke="#263238" stroke-linecap="round" stroke-linejoin="round"/>
<path d="M336.256 288.587C335.592 290.645 335.048 292.739 334.626 294.859C334.626 295.758 334.413 298.445 332.311 297.838C330.209 297.231 330.838 286.497 331.108 285.305C331.378 284.114 336.492 287.969 336.492 287.969" fill="white"/>
<path d="M336.256 288.587C335.592 290.645 335.048 292.739 334.626 294.859C334.626 295.758 334.413 298.445 332.311 297.838C330.209 297.231 330.838 286.497 331.108 285.305C331.378 284.114 336.492 287.969 336.492 287.969" stroke="#263238" stroke-linecap="round" stroke-linejoin="round"/>
<path d="M268.029 279.078C269.899 280.107 271.988 280.674 274.121 280.73C277.426 280.73 283.462 279.606 285.676 280.18C287.89 280.753 293.544 287.879 293.544 287.879C293.544 287.879 295.23 289.531 294.432 290.363C293.634 291.195 292.004 292.611 290.88 291.734C289.756 290.858 284.136 286.227 284.136 286.227L269.962 292.015L264.14 288.981L268.029 279.078Z" fill="white" stroke="#263238" stroke-linecap="round" stroke-linejoin="round"/>
<path d="M246.325 192.339C246.325 192.339 236.984 193.463 235.4 195.913C233.815 198.364 208.221 254.564 208.277 257.048C208.334 259.532 259.453 299.76 259.453 299.76L270.491 278.752L242.874 253.147L254.856 225.34" fill="white"/>
<path d="M246.325 192.339C246.325 192.339 236.984 193.463 235.4 195.913C233.815 198.364 208.221 254.564 208.277 257.048C208.334 259.532 259.453 299.76 259.453 299.76L270.491 278.752L242.874 253.147L254.856 225.34" stroke="#263238" stroke-linecap="round" stroke-linejoin="round"/>
<path d="M263.556 309.909L290.554 310.46L290.419 293.667" stroke="#263238" stroke-linecap="round" stroke-linejoin="round"/>
<path d="M269.996 292.015L262.859 294.679" stroke="#263238" stroke-linecap="round" stroke-linejoin="round"/>
<path d="M278.134 153.786C278.134 153.786 281.202 177.749 283.226 181.324C285.249 184.898 299.636 199.218 299.636 199.218C299.636 199.218 304.132 182.706 304.638 178.851C305.144 174.996 305.537 159.574 305.537 159.574L278.078 151.864L278.134 153.786Z" fill="white" stroke="#263238" stroke-linecap="round" stroke-linejoin="round"/>
<path d="M278.134 153.786C278.134 153.786 278.494 156.596 279.044 160.429C281.196 162.433 283.655 164.08 286.328 165.307C289.868 166.869 299.31 167.746 305.278 167.049C305.436 163.014 305.537 159.574 305.537 159.574L278.078 151.864L278.134 153.786Z" fill="#263238" stroke="#263238" stroke-linecap="round" stroke-linejoin="round"/>
<path d="M270.176 132.868C270.176 132.868 266.501 129.013 264.68 133.408C262.859 137.803 266.928 144.423 269.097 144.704C270.384 144.872 271.692 144.776 272.941 144.423C272.941 144.423 274.481 150.762 275.897 152.684C278.685 156.209 282.256 159.034 286.328 160.934C291.341 163.182 308.122 163.98 310.247 160.934C312.371 157.888 312.247 141.658 312.214 140.287C312.18 138.915 311.944 119.29 311.944 119.29C311.944 119.29 313.45 112.479 311.404 107.792C309.359 103.105 288.823 96.5517 283.664 99.2606C278.505 101.969 272.559 106.69 272.154 112.749C271.75 118.807 271.997 128.721 271.997 128.721L270.176 132.868Z" fill="white" stroke="#263238" stroke-linecap="round" stroke-linejoin="round"/>
<path d="M300.524 124.326C300.524 124.326 303.952 140.062 303.166 141.95C302.379 143.838 299.917 143.872 296.837 142.22C293.758 140.567 295.365 138.364 295.365 138.364" stroke="#263238" stroke-linecap="round" stroke-linejoin="round"/>
<path d="M288.587 142.501C288.587 142.501 290.071 146.626 292.825 146.907C295.579 147.188 302.491 147.728 302.491 147.728" stroke="#263238" stroke-linecap="round" stroke-linejoin="round"/>
<path d="M278.752 124.876L279.191 131.486C279.191 131.486 281.709 132.868 287.486 132.868C293.263 132.868 295.163 131.486 295.163 131.486L295.005 124.876C295.005 124.876 286.62 119.92 278.752 124.876Z" stroke="#263238" stroke-linecap="round" stroke-linejoin="round"/>
<path d="M300.546 124.876L302.637 131.767C302.637 131.767 303.491 132.891 309.28 132.891C315.068 132.891 316.968 131.508 316.968 131.508L316.799 124.899C316.799 124.899 308.403 119.92 300.546 124.876Z" stroke="#263238" stroke-linecap="round" stroke-linejoin="round"/>
<path d="M295.039 124.876H300.547" stroke="#263238" stroke-linecap="round" stroke-linejoin="round"/>
<path d="M278.786 124.876L267.928 131.216" stroke="#263238" stroke-linecap="round" stroke-linejoin="round"/>
<path d="M281.461 121.572C281.461 121.572 284.406 118.267 291.082 121.021" stroke="#263238" stroke-linecap="round" stroke-linejoin="round"/>
<path d="M301.558 121.572C302.55 120.776 303.746 120.277 305.008 120.132C306.271 119.987 307.549 120.202 308.696 120.751" stroke="#263238" stroke-linecap="round" stroke-linejoin="round"/>
<path d="M288.497 127.911C288.497 129.125 288.059 130.159 287.452 130.159C286.845 130.159 286.328 129.17 286.328 127.911C286.328 126.652 286.766 125.663 287.385 125.663C288.003 125.663 288.475 126.686 288.497 127.911Z" fill="#263238"/>
<path d="M306.121 127.63C306.121 128.844 305.683 129.878 305.076 129.878C304.469 129.878 303.952 128.889 303.952 127.63C303.952 126.371 304.391 125.382 304.997 125.382C305.604 125.382 306.088 126.416 306.121 127.63Z" fill="#263238"/>
<path d="M287.261 102.16C287.261 102.16 289.914 108.016 286.62 110.152C285.604 110.74 284.45 111.05 283.276 111.05C282.102 111.05 280.949 110.74 279.932 110.152C280.808 111.362 281.297 112.808 281.335 114.3C281.373 115.793 280.959 117.262 280.146 118.515C278.531 121.205 276.649 123.724 274.526 126.034C274.526 126.034 275.122 133.149 273.885 133.981C272.649 134.813 269.277 133.565 269.221 131.474C269.164 129.384 267.816 125.202 267.759 123.112C267.703 121.021 266.737 115.581 266.737 115.581C266.737 115.581 258.284 111.816 262.769 107.218C267.254 102.621 276.774 98.8559 276.774 98.8559C276.774 98.8559 276.988 90.4933 282.776 87.9868C288.565 85.4803 301.019 81.7149 301.12 85.8962C301.278 88.048 300.892 90.2051 299.996 92.1681C299.996 92.1681 310.438 91.7522 317.721 98.9121C325.005 106.072 324.757 112.715 320.992 112.715C317.227 112.715 316.002 113.547 316.002 113.547C316.002 113.547 323.206 117.728 319.497 119.818C315.788 121.909 311.966 119.403 311.966 119.403C311.966 119.403 313.562 116.48 308.864 112.659C304.166 108.837 287.261 102.16 287.261 102.16Z" fill="#263238" stroke="#263238" stroke-linecap="round" stroke-linejoin="round"/>
<path d="M144.636 524.908C177.121 524.908 203.455 518.97 203.455 511.645C203.455 504.32 177.121 498.382 144.636 498.382C112.152 498.382 85.8174 504.32 85.8174 511.645C85.8174 518.97 112.152 524.908 144.636 524.908Z" fill="#263238" stroke="#263238" stroke-linecap="round" stroke-linejoin="round"/>
<path d="M183.369 237.31V248.056L198.993 255.216C198.993 255.216 200.623 248.056 199.319 235.354L183.369 237.31Z" fill="#999999" stroke="#263238" stroke-linecap="round" stroke-linejoin="round"/>
<path d="M105.825 495.167C102.249 498.237 98.8698 501.529 95.7086 505.025C91.2126 510.094 90.3359 515.141 94.5172 517.557C98.6984 519.974 105.263 519.344 112.422 514.871C119.582 510.397 119.29 508.599 123.471 507.115C127.653 505.632 130.339 502.619 130.339 497.853C130.339 493.088 115.109 492.481 111.827 492.233C108.545 491.986 105.825 495.167 105.825 495.167Z" fill="white" stroke="#263238" stroke-linecap="round" stroke-linejoin="round"/>
<path d="M130.305 497.854C130.305 497.854 123.561 500.843 120.29 503.563C117.019 506.284 110.5 516.074 102.88 516.074C98.9987 516.077 95.1822 515.082 91.7969 513.185C91.8018 514.09 92.0549 514.976 92.5286 515.747C93.0022 516.518 93.6783 517.144 94.4832 517.557C98.6645 519.94 105.229 519.344 112.389 514.871C119.548 510.397 119.256 508.599 123.437 507.115C127.619 505.632 130.305 502.631 130.305 497.854Z" stroke="#263238" stroke-linecap="round" stroke-linejoin="round"/>
<path d="M181.571 495.167C185.147 498.237 188.526 501.529 191.687 505.025C196.183 510.094 197.06 515.141 192.879 517.557C188.697 519.974 182.133 519.344 174.973 514.871C167.813 510.397 168.106 508.599 163.924 507.115C159.743 505.632 157.057 502.619 157.057 497.853C157.057 493.088 172.287 492.481 175.569 492.233C178.851 491.986 181.571 495.167 181.571 495.167Z" fill="white" stroke="#263238" stroke-linecap="round" stroke-linejoin="round"/>
<path d="M157.09 497.854C157.09 497.854 163.834 500.843 167.105 503.563C170.376 506.284 176.895 516.074 184.516 516.074C188.397 516.077 192.213 515.082 195.599 513.185C195.594 514.09 195.341 514.976 194.867 515.747C194.393 516.518 193.717 517.144 192.912 517.557C188.731 519.94 182.167 519.344 175.007 514.871C167.847 510.397 168.139 508.599 163.958 507.115C159.777 505.632 157.09 502.631 157.09 497.854Z" stroke="#263238" stroke-linecap="round" stroke-linejoin="round"/>
<path d="M97.1699 325.623C97.1699 325.623 98.9571 392.782 99.8563 402.639C100.755 412.497 103.408 434.875 103.408 436.112C103.408 437.348 104.892 486.86 104.892 486.86L102.205 491.356L103.105 497.628L115.042 500.011C121.01 501.203 128.777 503.001 129.968 501.81C131.16 500.618 131.463 498.224 132.059 494.942C132.655 491.66 133.846 485.68 132.655 480.914C131.463 476.149 134.15 425.389 134.453 424.197C134.756 423.006 141.624 373.977 141.624 373.977C141.624 373.977 146.12 414.284 149.38 426.513C152.639 438.742 151.47 456.962 152.662 464.122C153.853 471.282 156.247 495.47 156.551 497.257C156.854 499.045 157.439 501.753 157.439 501.753C157.439 501.753 172.366 499.663 175.052 498.46C177.776 497.457 180.571 496.66 183.414 496.077C183.414 496.077 184.302 479.06 183.111 472.192C182.243 467.367 181.743 462.482 181.616 457.58C181.616 455.49 183.111 389.23 183.111 389.23L181.616 325.049C181.616 325.049 141.321 329.231 125.798 326.241C110.276 323.251 97.4734 321.464 97.4734 321.464L97.1699 325.623Z" fill="#1368DA" stroke="#263238" stroke-linecap="round" stroke-linejoin="round"/>
<path d="M125.821 326.218C110.298 323.24 97.4734 321.464 97.4734 321.464L97.1699 325.634C97.1699 325.634 97.2711 329.489 97.4397 335.469C104.555 337.458 119.009 340.954 132.981 340.954C147.75 340.954 171.275 336.458 181.863 334.311L181.639 325.038C181.639 325.038 141.343 329.208 125.821 326.218Z" fill="#263238" stroke="#263238" stroke-linecap="round" stroke-linejoin="round"/>
<path d="M177.671 477.464C177.862 479.521 177.986 480.701 177.986 480.701" stroke="#263238" stroke-linecap="round" stroke-linejoin="round"/>
<path d="M173.096 341.381C173.096 341.381 174.22 399.065 174.22 420.837C174.22 435.899 176.041 458.761 177.165 471.417" stroke="#263238" stroke-linecap="round" stroke-linejoin="round"/>
<path d="M112.681 338.122L115.401 400.706" stroke="#263238" stroke-linecap="round" stroke-linejoin="round"/>
<path d="M114.85 405.596V415.936" stroke="#263238" stroke-linecap="round" stroke-linejoin="round"/>
<path d="M129.002 167.97C127.532 167.978 126.085 168.336 124.782 169.014C123.478 169.693 122.354 170.672 121.504 171.871C119.646 174.323 117.577 176.61 115.322 178.705L88.6274 193.036L91.2351 294.937L92.213 329.781C92.213 329.781 112.715 336.615 132.25 336.615C151.785 336.615 186.618 328.747 186.618 328.747C186.618 328.747 183.695 192.991 184.673 192.991C185.651 192.991 165.464 175.456 156.348 170.848C147.233 166.239 129.002 167.97 129.002 167.97Z" fill="#1368DA" stroke="#263238" stroke-linecap="round" stroke-linejoin="round"/>
<path d="M121.392 180.29C121.392 180.29 131.733 199.341 136.094 208.052C140.455 216.763 148.593 229.296 148.593 229.296L162.205 192.833" stroke="#263238" stroke-linecap="round" stroke-linejoin="round"/>
<path d="M129.035 301.131L128.507 285.923L97.7881 284.136C97.7881 284.136 98.0916 306.526 98.6873 307.74" stroke="#263238" stroke-linecap="round" stroke-linejoin="round"/>
<path d="M129.406 311.899L129.26 307.627" stroke="#263238" stroke-linecap="round" stroke-linejoin="round"/>
<path d="M165.824 309.505L164.924 284.439C164.924 284.439 175.67 285.327 184.628 279.359" stroke="#263238" stroke-linecap="round" stroke-linejoin="round"/>
<path d="M119.762 224.71C120.706 227.689 123.584 229.442 126.18 228.61C128.777 227.779 130.092 224.688 129.136 221.709C128.181 218.73 125.315 216.977 122.718 217.809C120.122 218.641 118.807 221.732 119.762 224.71Z" stroke="#263238" stroke-linecap="round" stroke-linejoin="round"/>
<path d="M120.066 172.557C120.066 172.557 116.615 185.82 124.461 221.822" stroke="#263238" stroke-width="2" stroke-linecap="round" stroke-linejoin="round"/>
<path d="M126.877 223.058C126.646 223.524 126.286 223.914 125.839 224.182C125.393 224.45 124.879 224.584 124.358 224.568C123.838 224.552 123.333 224.388 122.904 224.093C122.474 223.799 122.138 223.388 121.935 222.909C121.732 222.429 121.671 221.902 121.759 221.389C121.847 220.876 122.081 220.399 122.432 220.014C122.783 219.63 123.237 219.355 123.74 219.221C124.243 219.087 124.774 219.1 125.27 219.258C125.984 219.553 126.553 220.117 126.854 220.828C127.155 221.539 127.163 222.34 126.877 223.058V223.058Z" stroke="#263238" stroke-linecap="round" stroke-linejoin="round"/>
<path d="M183.369 191.08C183.369 191.08 188.248 194.666 188.573 195.969C188.899 197.273 205.501 236.984 205.501 236.984L181.414 240.536L181.74 217.089" fill="#1368DA"/>
<path d="M183.369 191.08C183.369 191.08 188.248 194.666 188.573 195.969C188.899 197.273 205.501 236.984 205.501 236.984L181.414 240.536L181.74 217.089" stroke="#263238" stroke-linecap="round" stroke-linejoin="round"/>
<path d="M91.887 191.732C91.887 191.732 86.3457 192.384 85.0418 196.61C83.738 200.836 74.3076 243.818 74.3076 243.818L108.814 240.536L105.555 208.3" fill="#1368DA"/>
<path d="M91.887 191.732C91.887 191.732 86.3457 192.384 85.0418 196.61C83.738 200.836 74.3076 243.818 74.3076 243.818L108.814 240.536L105.555 208.3" stroke="#263238" stroke-linecap="round" stroke-linejoin="round"/>
<path d="M158.54 170.533C158.54 170.533 167.094 175.411 167.937 187.551C168.78 199.69 167.937 202.77 167.937 202.77" stroke="#263238" stroke-width="2" stroke-linecap="round" stroke-linejoin="round"/>
<path d="M171.803 218.314C171.803 218.314 171.039 232.668 169.477 236.815C167.914 240.963 161.732 245.875 156.832 246.662" stroke="#263238" stroke-linecap="round" stroke-linejoin="round"/>
<path d="M160.732 216.764C160.732 216.764 160.046 233.32 159.979 236.4C159.911 239.48 163.013 244.841 167.464 249.978" stroke="#263238" stroke-linecap="round" stroke-linejoin="round"/>
<path d="M168.741 251.781L168.872 251.675C169.485 251.178 169.578 250.279 169.082 249.667L168.452 248.89C167.955 248.278 167.056 248.184 166.444 248.681L166.313 248.787C165.701 249.283 165.607 250.182 166.103 250.795L166.733 251.572C167.23 252.184 168.129 252.278 168.741 251.781Z" fill="#263238"/>
<path d="M155.072 247.187L155.103 247.352C155.25 248.127 155.997 248.636 156.772 248.489L157.755 248.303C158.529 248.156 159.038 247.409 158.891 246.635L158.86 246.469C158.713 245.694 157.966 245.185 157.192 245.332L156.209 245.518C155.434 245.665 154.925 246.412 155.072 247.187Z" fill="#263238"/>
<path d="M171.972 219.405L171.646 207.344C171.616 206.086 171.118 204.885 170.249 203.974C169.38 203.064 168.203 202.51 166.948 202.421V202.421C165.615 202.322 164.296 202.754 163.281 203.624C162.266 204.494 161.636 205.731 161.53 207.063L160.519 219.292" stroke="#263238" stroke-width="2" stroke-linecap="round" stroke-linejoin="round"/>
<path d="M199.971 247.077L192.204 245.448L164.857 240.895L126.506 233.589L117.413 229.577C117.413 229.577 108.814 218.337 108.072 217.213C107.331 216.089 97.608 220.012 97.9564 221.506C98.3048 223.001 99.4513 237.939 100.204 238.884C100.957 239.828 109.354 239.816 109.354 239.816C109.354 239.816 149.413 259.149 151.077 259.857C174.197 269.602 185.347 269.513 189.293 270.153C193.238 270.794 195.812 269.198 198.082 266.59C200.353 263.982 199.971 247.077 199.971 247.077Z" fill="#999999" stroke="#263238" stroke-linecap="round" stroke-linejoin="round"/>
<path d="M106.904 217.056C106.904 217.056 102.239 217.247 95.3266 221.911C92.7526 223.654 91.4038 224.901 91.4038 225.654C91.5511 226.55 91.8039 227.425 92.1569 228.262C96.6386 226.104 101.332 224.416 106.162 223.226" fill="#999999"/>
<path d="M106.904 217.056C106.904 217.056 102.239 217.247 95.3266 221.911C92.7526 223.654 91.4038 224.901 91.4038 225.654C91.5511 226.55 91.8039 227.425 92.1569 228.262C96.6386 226.104 101.332 224.416 106.162 223.226" stroke="#263238" stroke-linecap="round" stroke-linejoin="round"/>
<path d="M108.769 229.015C108.769 229.015 96.0795 232.185 94.0226 232.567C91.9657 232.949 91.5947 230.881 91.5947 230.139C91.5947 229.397 92.1567 228.262 94.3935 227.149C96.6303 226.036 107.881 223.035 107.881 223.035" fill="#999999"/>
<path d="M108.769 229.015C108.769 229.015 96.0795 232.185 94.0226 232.567C91.9657 232.949 91.5947 230.881 91.5947 230.139C91.5947 229.397 92.1567 228.262 94.3935 227.149C96.6303 226.036 107.881 223.035 107.881 223.035" stroke="#263238" stroke-linecap="round" stroke-linejoin="round"/>
<path d="M110.085 234.804C110.085 234.804 95.3267 236.299 94.2027 235.366C93.8588 234.991 93.5979 234.548 93.4371 234.066C93.2763 233.584 93.2193 233.073 93.2698 232.567L106.533 229.757" fill="#999999"/>
<path d="M110.085 234.804C110.085 234.804 95.3267 236.299 94.2027 235.366C93.8588 234.991 93.5979 234.548 93.4371 234.066C93.2763 233.584 93.2193 233.073 93.2698 232.567L106.533 229.757" stroke="#263238" stroke-linecap="round" stroke-linejoin="round"/>
<path d="M105.971 235.545L94.5845 236.107C94.5845 236.107 95.1352 237.793 95.7085 237.973C98.4059 238.64 101.154 239.079 103.925 239.288C105.742 239.348 107.552 239.536 109.343 239.85" fill="#999999"/>
<path d="M105.971 235.545L94.5845 236.107C94.5845 236.107 95.1352 237.793 95.7085 237.973C98.4059 238.64 101.154 239.079 103.925 239.288C105.742 239.348 107.552 239.536 109.343 239.85" stroke="#263238" stroke-linecap="round" stroke-linejoin="round"/>
<path d="M81.4673 243.166C81.4673 243.166 86.6714 265.646 87.9752 267.265C89.2791 268.883 100.025 267.265 110.77 264.005C121.515 260.745 167.094 241.222 167.094 241.222L173.602 242.514C173.602 242.514 170.994 234.376 166.442 234.05C161.889 233.724 108.814 240.536 108.814 240.536L81.4673 243.166Z" fill="#999999" stroke="#263238" stroke-linecap="round" stroke-linejoin="round"/>
<path d="M127.012 153.64C127.012 153.64 127.012 154.123 127.012 154.943C127.113 159.226 127.529 172.826 128.619 176.108C129.923 180.009 147.502 212.897 148.851 210.289C150.2 207.682 158.293 172.197 158.293 172.197V158.203C158.293 158.203 154.055 161.777 146.243 161.777C138.432 161.777 127.012 153.64 127.012 153.64Z" fill="#999999" stroke="#263238" stroke-linecap="round" stroke-linejoin="round"/>
<path d="M153.089 172.927C154.911 171.814 156.654 170.575 158.304 169.218V158.203C158.304 158.203 154.066 161.777 146.255 161.777C138.443 161.777 127.012 153.64 127.012 153.64C127.012 153.64 127.012 154.123 127.012 154.943C127.012 156.45 127.124 159.114 127.259 162.081C127.567 162.575 127.913 163.045 128.293 163.486C130.541 166.082 141.309 172.602 143.917 173.253C146.524 173.905 150.155 174.546 153.089 172.927Z" fill="#263238" stroke="#263238" stroke-linecap="round" stroke-linejoin="round"/>
<path d="M166.116 134.756C166.116 134.756 171.32 131.823 171.32 137.364C171.32 142.905 166.442 149.413 166.442 149.413L166.116 134.756Z" fill="#999999" stroke="#263238" stroke-linecap="round" stroke-linejoin="round"/>
<path d="M119.56 135.082C119.56 135.082 112.389 133.127 112.389 139.646C112.389 146.165 118.908 150.38 118.908 150.38H123.404C123.404 150.38 126.012 156.899 128.293 159.496C130.575 162.092 141.309 168.611 143.917 169.263C146.525 169.915 150.099 170.567 153.033 168.937C156.718 166.64 160.115 163.907 163.149 160.799C164.452 159.181 166.734 148.11 166.734 148.11C166.734 148.11 167.386 128.248 166.082 121.415C164.778 114.581 156.315 103.835 144.591 102.531C132.868 101.227 121.797 110.669 120.178 118.155C118.559 125.641 119.56 135.082 119.56 135.082Z" fill="#999999" stroke="#263238" stroke-linecap="round" stroke-linejoin="round"/>
<path d="M140.713 140.298C140.713 140.298 138.465 144.85 142.343 146.154C146.221 147.458 151.133 147.132 152.111 145.176C153.089 143.22 151.459 140.95 151.459 140.95" stroke="#263238" stroke-linecap="round" stroke-linejoin="round"/>
<path d="M136.813 148.436C136.813 148.436 144.951 155.269 156.023 148.762" stroke="#263238" stroke-linecap="round" stroke-linejoin="round"/>
<path d="M141.365 154.617C141.365 154.617 148.21 158.529 152.763 153.965" stroke="#263238" stroke-linecap="round" stroke-linejoin="round"/>
<path d="M137.465 136.386C138.365 136.386 139.095 135.219 139.095 133.779C139.095 132.338 138.365 131.171 137.465 131.171C136.565 131.171 135.835 132.338 135.835 133.779C135.835 135.219 136.565 136.386 137.465 136.386Z" fill="#263238"/>
<path d="M155.044 133.452C155.044 134.891 154.314 136.06 153.414 136.06C152.515 136.06 151.785 134.936 151.785 133.452C151.785 131.969 152.515 130.856 153.414 130.856C154.314 130.856 155.044 132.014 155.044 133.452Z" fill="#263238"/>
<path d="M132.902 130.204C132.902 130.204 134.532 127.597 140.77 128.574" stroke="#263238" stroke-linecap="round" stroke-linejoin="round"/>
<path d="M150.807 128.9C150.807 128.9 153.741 124.337 158.304 128.9" stroke="#263238" stroke-linecap="round" stroke-linejoin="round"/>
<path d="M166.116 121.392C165.693 119.459 164.96 117.606 163.946 115.907C163.567 117.709 163.435 119.554 163.553 121.392C164.025 123.775 165.7 127.102 165.7 128.765C165.7 130.429 165.453 137.094 166.644 136.15C166.762 136.025 166.857 135.881 166.925 135.723C166.999 130.933 166.729 126.143 166.116 121.392Z" fill="#263238" stroke="#263238" stroke-linecap="round" stroke-linejoin="round"/>
<path d="M149.75 107.904C151.841 107.793 153.921 107.542 155.977 107.151C152.657 104.665 148.743 103.092 144.625 102.587C132.902 101.284 121.83 110.725 120.212 118.211C118.593 125.697 119.56 135.139 119.56 135.139C119.56 135.139 122.145 136.937 123.1 135.037C124.056 133.138 123.1 130.036 124.056 126.709C125.011 123.381 126.427 121.707 126.664 119.088C126.9 116.469 125.236 112.67 126.191 110.523C127.147 108.376 133.093 104.341 136.903 105.768C141.003 107.321 145.369 108.047 149.75 107.904Z" fill="#263238" stroke="#263238" stroke-linecap="round" stroke-linejoin="round"/>
</svg>
