<svg xmlns="http://www.w3.org/2000/svg" xmlns:xlink="http://www.w3.org/1999/xlink" width="316.945" height="236.182" viewBox="0 0 316.945 236.182">
  <defs>
    <linearGradient id="linear-gradient" x1="0.5" x2="0.5" y2="1" gradientUnits="objectBoundingBox">
      <stop offset="0" stop-color="#0e3f6c"/>
      <stop offset="1" stop-color="#e5184e"/>
    </linearGradient>
    <clipPath id="clip-path">
      <path id="Path_938" data-name="Path 938" d="M2878.393,792.206h64.386c6.361,0,12.365-5.269,13.411-11.769l23.891-148.448c1.046-6.5-3.262-11.769-9.623-11.769h-64.386c-6.36,0-12.364,5.269-13.411,11.769l-23.893,148.447C2867.727,786.933,2872.032,792.206,2878.393,792.206Z" transform="translate(-2868.613 -620.22)" fill="none"/>
    </clipPath>
    <filter id="Path_948" x="134.667" y="26.527" width="58.973" height="40.583" filterUnits="userSpaceOnUse">
      <feOffset dy="3" input="SourceAlpha"/>
      <feGaussianBlur stdDeviation="3" result="blur"/>
      <feFlood flood-opacity="0.161"/>
      <feComposite operator="in" in2="blur"/>
      <feComposite in="SourceGraphic"/>
    </filter>
    <clipPath id="clip-path-2">
      <path id="Path_1001" data-name="Path 1001" d="M2499.887,1027.138l-7.759,47.836,8.534,12.849h55.6l11.817-11.236,6.586-63.542-1.249-45.51-18.088-27.9-26.37,1.961-12.992,7.127-13.6,25.781-27.9,5.884-11.986,7.192,1.307,15.473,32.907,23.755Z" transform="translate(-2462.49 -939.64)" fill="none"/>
    </clipPath>
  </defs>
  <g id="Group_1608" data-name="Group 1608" transform="translate(-48.527 -175.106)">
    <path id="Path_839" data-name="Path 839" d="M3883.535,680.436H3625.589A22.05,22.05,0,0,1,3607.471,671c-14.574-20.976-17.754-49.52-8.643-73.627,6.515-17.241,19.064-32.093,23.033-50.092,3.631-16.464-.354-33.514-1.365-50.343s2.076-35.824,15.579-45.922c11.042-8.258,26.537-8.278,39.544-3.7s24.169,13.115,35.331,21.212,22.913,16.041,36.353,19.122c15.468,3.546,31.619.311,47.033-3.461s31.083-8.119,46.894-6.762,32.138,9.811,37.859,24.614c6.558,16.971-2.32,36.59,2.657,54.091,3.047,10.717,10.892,19.272,16.859,28.68,14.563,22.958,15.279,54.892,5.656,81.206A22.046,22.046,0,0,1,3883.535,680.436Z" transform="translate(-3545.189 -269.149)" fill="url(#linear-gradient)"/>
    <g id="Group_517" data-name="Group 517" transform="translate(146.413 8.478)">
      <g id="Group_516" data-name="Group 516" transform="translate(-61.05 396.271)">
        <ellipse id="Ellipse_28" data-name="Ellipse 28" cx="115.084" cy="3.269" rx="115.084" ry="3.269" fill="#659ac9"/>
      </g>
      <path id="Path_892" data-name="Path 892" d="M1368.575,1757.516l-.855-9.491-7.526,1.154.439-1.488-6.054-9.78-4.4,12.115a8.72,8.72,0,0,1,5.355,2.018c1.925,1.8,2.359,4.931,2.387,7.22.13-.015.254-.031.381-.053Z" transform="translate(-1392.271 -1468.939)" fill="#e5184e"/>
      <path id="Path_893" data-name="Path 893" d="M1344.793,1926.018a8.728,8.728,0,0,0-5.355-2.018l-.439,1.208a5.143,5.143,0,0,0,.75,4.883,8.161,8.161,0,0,0,7.431,3.146C1347.151,1930.95,1346.717,1927.819,1344.793,1926.018Z" transform="translate(-1381.528 -1642.914)" fill="#f998c0"/>
      <path id="Path_894" data-name="Path 894" d="M1595.642,1277.9a25.066,25.066,0,0,1,.977,7.366l.805,3.018a.656.656,0,0,1-.3.731l-.742.445s-.279,4.752-2.842,4.983h-2.1l-.233,4.427h-6.756l.466-4.893-1.865-7.922v-6.757l6.292-4.195Z" transform="translate(-1609.99 -1036.259)" fill="#fcc5b6"/>
      <path id="Path_895" data-name="Path 895" d="M1557.151,1286.382c1.931-2.122,3.5-5.38,5.078-7.777.921-1.4,1.953-2.907,1.815-4.576a4.265,4.265,0,0,0-1.764-2.97,7,7,0,0,0-3.3-1.226c-3.327-.428-6.831-.05-9.058,2.458a10.529,10.529,0,0,0-2.3,9.4c.363,1.438-.482,3.109-.007,4.508a4.625,4.625,0,0,0,3.125,2.233A7.335,7.335,0,0,0,1557.151,1286.382Z" transform="translate(-1576.583 -1031.193)" fill="#a2a2a2"/>
      <path id="Path_896" data-name="Path 896" d="M2110.69,1607.322l4.333-3.094,2.011-6.654,2.321-2.474,1.7-2.94.618.928a16.7,16.7,0,0,1-2.321,4.332l.116.039a2.425,2.425,0,0,1,.911.552l1.823,1.753a1.423,1.423,0,0,1,.15.937l-.4,2.189a1.274,1.274,0,0,1-.818.97l-1.014.369-1.083,2.63-2.321,1.083-4.177,3.711Z" transform="translate(-2103.27 -1332.677)" fill="#fcc5b6"/>
      <path id="Path_897" data-name="Path 897" d="M1177.052,3471.173l1.2,7.524.1,3.943a2.49,2.49,0,0,1-2.49,2.555h-6.542a1.716,1.716,0,0,1-1.594-1.079h0a.606.606,0,0,0-1.133.021h0a1.335,1.335,0,0,1-1.258.887h-2.068a1.729,1.729,0,0,1-1.729-1.778l.083-2.982a2.725,2.725,0,0,1,1.194-2.181l3.633-2.465,1.881-3.762s-.684-4.1,1.026-4.447,3.078,4.1,3.078,4.1l1.026-.171Z" transform="translate(-1215.911 -3085.827)" fill="#382a73"/>
      <path id="Path_898" data-name="Path 898" d="M1327.856,2855.129c-7.838.778-15.6-2.544-23.468-2.128-3.988.21-7.993,1.379-11.917.635a9.473,9.473,0,0,1-3.75-1.526,19.021,19.021,0,0,1,13.58-10.238,28.681,28.681,0,0,1,17.247,2.43,17.424,17.424,0,0,1,6.073,4.142A8.163,8.163,0,0,1,1327.856,2855.129Z" transform="translate(-1334.812 -2500.607)" fill="#382a73"/>
      <path id="Path_899" data-name="Path 899" d="M1302.262,2841.742l-8.38,44.121-.086.032a9.039,9.039,0,0,1-6.926-.2h0L1292,2839.86Z" transform="translate(-1333.083 -2499.149)" fill="#fcc5b6"/>
      <path id="Path_900" data-name="Path 900" d="M1115.2,2586.282l2.907,43.095,6.5-.342,1.539-44.8Z" transform="translate(-1136.616 -2242.321)" fill="#fcc5b6"/>
      <path id="Path_901" data-name="Path 901" d="M1673.565,3477.119l-2.124,11.469a2.018,2.018,0,0,0,1.982,2.383h6.3l.45-.27a3.971,3.971,0,0,1,4.191.065l.319.206h9.476a1.679,1.679,0,0,0,1.656-1.953l-.4-2.377a3.281,3.281,0,0,0-2.029-2.511l-6.485-2.567-4.1-4.275s2.394-2.734.513-3.762-3.646,3.933-3.646,3.933h0a8.411,8.411,0,0,1-5.334-.074Z" transform="translate(-1692.586 -3091.432)" fill="#382a73"/>
      <path id="Path_902" data-name="Path 902" d="M2254.429,1748.821a.114.114,0,0,1-.033-.005.109.109,0,0,1-.071-.137l.59-1.841a.109.109,0,0,1,.208.065l-.591,1.841A.11.11,0,0,1,2254.429,1748.821Z" transform="translate(-2237.549 -1477.219)" fill="#382a73"/>
      <path id="Path_903" data-name="Path 903" d="M2220.755,1687.79a.106.106,0,0,1-.07-.026l-2.658-2.223a.109.109,0,0,1,.14-.168l2.658,2.223a.109.109,0,0,1-.07.2Z" transform="translate(-2203.582 -1419.799)" fill="#382a73"/>
      <path id="Path_904" data-name="Path 904" d="M1457.2,1598.736a12.908,12.908,0,0,0-3.146-4.029l-.414-.356-2.222,1.54-.826-.344a2.694,2.694,0,0,0-2.381.148l-3.634,2.076-8.2-13.675a6.224,6.224,0,0,0-4.513-2.967l-3.421-.456c-.306-.041-.614-.077-.92-.107l-.212-.922-3.288-.3a5.1,5.1,0,0,0-.947,0l-3.118.3-.169,1.1a30.452,30.452,0,0,0-4.011.877l-1.937.561a7.393,7.393,0,0,0-4.9,4.609l-1.665,4.651a24.059,24.059,0,0,0,3.666,7.214c.734.912,1.655,1.658,2.391,2.566l.795-2.336,1.046,4.185-.342,3.762h18.815v-5.8a43.724,43.724,0,0,0,4.153,5.79,4.3,4.3,0,0,1,.367-.921,5.212,5.212,0,0,1,3.417-2.5,6.789,6.789,0,0,1,4.258.5,5.636,5.636,0,0,1,3.06,3.045,3.872,3.872,0,0,1,.227,1.432l2.66-1.577a6.054,6.054,0,0,0,2.914-4.452l.145-1.164,2.395-2.395Z" transform="translate(-1445.644 -1320.676)" fill="#e5184e"/>
      <path id="Path_905" data-name="Path 905" d="M1887.182,1950.709a5.656,5.656,0,0,0-3.06-3.045,6.782,6.782,0,0,0-4.258-.5,5.213,5.213,0,0,0-3.417,2.5,4.3,4.3,0,0,0-.367.921c.234.273.464.534.688.781a7.633,7.633,0,0,0,9.543,1.432l1.1-.651A3.873,3.873,0,0,0,1887.182,1950.709Z" transform="translate(-1883.933 -1664.431)" fill="#f998c0"/>
      <path id="Path_906" data-name="Path 906" d="M1979.5,1863.674a.11.11,0,0,1-.093-.051l-1.6-2.577a.109.109,0,0,1,.186-.115l1.605,2.577a.11.11,0,0,1-.035.151A.111.111,0,0,1,1979.5,1863.674Z" transform="translate(-1979.025 -1583.906)" fill="#fff"/>
      <path id="Path_907" data-name="Path 907" d="M1488.12,1805.908a.11.11,0,0,1-.106-.081c-.473-1.736-1.029-3.47-1.653-5.156a.109.109,0,1,1,.205-.076c.627,1.693,1.185,3.432,1.659,5.174a.111.111,0,0,1-.077.135A.113.113,0,0,1,1488.12,1805.908Z" transform="translate(-1519.58 -1527.477)" fill="#fff"/>
      <path id="Path_908" data-name="Path 908" d="M1754.705,1816.115a.107.107,0,0,1-.1-.06,65.189,65.189,0,0,0-3.706-6.389.109.109,0,0,1,.182-.12,65.094,65.094,0,0,1,3.718,6.413.109.109,0,0,1-.1.159Z" transform="translate(-1766.892 -1535.872)" fill="#fff"/>
      <path id="Path_909" data-name="Path 909" d="M2091,1839.21a.11.11,0,0,1-.106-.08,11.434,11.434,0,0,0-2.636-4.7.109.109,0,1,1,.16-.149,11.647,11.647,0,0,1,2.687,4.792.109.109,0,0,1-.105.139Z" transform="translate(-2082.271 -1559.002)" fill="#fff"/>
      <path id="Path_910" data-name="Path 910" d="M1302.6,1978.28l-4.74,8.655a36.93,36.93,0,0,0-4.113,12.146l-2.263,14.77-3.591,23.6-1.027,7.357s7.525-6.67,17.444-4.96,15.22,7.866,22.4,8.38c0,0,.684-12.484-1.881-35.912l-3.762-33.347-1.874.249a44.286,44.286,0,0,1-16.6-.933Z" transform="translate(-1333.082 -1693.66)" fill="#0e3f6c"/>
      <path id="Path_911" data-name="Path 911" d="M1524.661,2048.869a43.358,43.358,0,0,1-9.67-.881.109.109,0,1,1,.057-.211c3.868,1.049,13.411,1.185,17.31.247a.109.109,0,0,1,.13.081.11.11,0,0,1-.081.13A37.512,37.512,0,0,1,1524.661,2048.869Z" transform="translate(-1546.273 -1758.629)" fill="#fff"/>
      <path id="Path_912" data-name="Path 912" d="M1391.963,2867.46a.129.129,0,0,1-.031,0,30.144,30.144,0,0,1-7.919-4.138c-1.331-.873-2.708-1.776-4.12-2.539a28.3,28.3,0,0,0-21.513-2.055.109.109,0,1,1-.065-.209,28.331,28.331,0,0,1,21.682,2.071c1.421.767,2.8,1.673,4.136,2.548a29.983,29.983,0,0,0,7.86,4.111.109.109,0,0,1-.031.214Z" transform="translate(-1399.805 -2515.412)" fill="#fff"/>
      <path id="Path_913" data-name="Path 913" d="M1525.762,1936.891a.108.108,0,0,1-.1-.141l.3-.989-.391-1.738a.109.109,0,1,1,.214-.048l.406,1.8-.322,1.042A.11.11,0,0,1,1525.762,1936.891Z" transform="translate(-1556.241 -1652.159)" fill="#fff"/>
      <path id="Path_914" data-name="Path 914" d="M1494.13,1911.389a.117.117,0,0,1-.033-.005.109.109,0,0,1-.071-.137l.542-1.71a.109.109,0,0,1,.208.065l-.542,1.71A.11.11,0,0,1,1494.13,1911.389Z" transform="translate(-1526.747 -1629.327)" fill="#fff"/>
      <path id="Path_915" data-name="Path 915" d="M1440.253,1352.876a21.776,21.776,0,0,0-2.124,11.493,9.8,9.8,0,0,0,1.419,5.033,7.985,7.985,0,0,0,4.767,2.949,10.918,10.918,0,0,0,8.887-1.6,11.8,11.8,0,0,0,4.362-7.281,21.374,21.374,0,0,0-.316-8.621c-.6-2.782-1.618-5.64-3.8-7.465a7.633,7.633,0,0,0-3.9-1.758,6.014,6.014,0,0,0-3.218,1.042A14.662,14.662,0,0,0,1440.253,1352.876Z" transform="translate(-1474.44 -1102.186)" fill="#a2a2a2"/>
      <g id="Group_510" data-name="Group 510" transform="translate(56.763 196.207)" clip-path="url(#clip-path)">
        <path id="Path_916" data-name="Path 916" d="M2319.1,346.2l-.531,171.984H2302.39V346.2Z" transform="translate(-2303.28 -346.199)" fill="#659ac9"/>
        <path id="Path_917" data-name="Path 917" d="M2556.148,346.2l-.531,171.984h-4.767l.531-171.984Z" transform="translate(-2535.564 -346.199)" fill="#659ac9"/>
        <path id="Path_918" data-name="Path 918" d="M2629.368,346.2l-.531,171.984h-4.767L2624.6,346.2Z" transform="translate(-2604.018 -346.199)" fill="#659ac9"/>
        <path id="Path_919" data-name="Path 919" d="M2702.6,346.2l-.531,171.984H2697.3l.531-171.984Z" transform="translate(-2672.48 -346.199)" fill="#659ac9"/>
        <path id="Path_920" data-name="Path 920" d="M2775.818,346.2l-.531,171.984h-4.768l.531-171.984Z" transform="translate(-2740.933 -346.199)" fill="#659ac9"/>
        <path id="Path_921" data-name="Path 921" d="M2849.048,346.2l-.531,171.984h-4.767l.531-171.984Z" transform="translate(-2809.396 -346.199)" fill="#659ac9"/>
        <path id="Path_922" data-name="Path 922" d="M2922.268,346.2l-.531,171.984h-4.767L2917.5,346.2Z" transform="translate(-2877.849 -346.199)" fill="#659ac9"/>
        <path id="Path_923" data-name="Path 923" d="M2995.5,346.2l-.531,171.984H2990.2l.531-171.984Z" transform="translate(-2946.311 -346.199)" fill="#659ac9"/>
        <path id="Path_924" data-name="Path 924" d="M3068.727,346.2l-.53,171.984h-4.767l.53-171.984Z" transform="translate(-3014.774 -346.199)" fill="#659ac9"/>
        <path id="Path_925" data-name="Path 925" d="M3141.948,346.2l-.531,171.984h-4.767l.531-171.984Z" transform="translate(-3083.227 -346.199)" fill="#659ac9"/>
        <path id="Path_926" data-name="Path 926" d="M3215.178,346.2l-.531,171.984h-4.767l.531-171.984Z" transform="translate(-3151.689 -346.199)" fill="#659ac9"/>
        <path id="Path_927" data-name="Path 927" d="M3288.4,346.2l-.531,171.984H3283.1l.531-171.984Z" transform="translate(-3220.143 -346.199)" fill="#659ac9"/>
        <path id="Path_928" data-name="Path 928" d="M3361.628,346.2l-.531,171.984h-4.767l.531-171.984Z" transform="translate(-3288.605 -346.199)" fill="#659ac9"/>
        <path id="Path_929" data-name="Path 929" d="M3434.848,346.2l-.531,171.984h-4.767l.531-171.984Z" transform="translate(-3357.059 -346.199)" fill="#659ac9"/>
        <path id="Path_930" data-name="Path 930" d="M3508.078,346.2l-.531,171.984h-4.767l.531-171.984Z" transform="translate(-3425.521 -346.199)" fill="#659ac9"/>
        <path id="Path_931" data-name="Path 931" d="M3581.3,346.2l-.531,171.984H3576l.531-171.984Z" transform="translate(-3493.974 -346.199)" fill="#659ac9"/>
        <path id="Path_932" data-name="Path 932" d="M3654.528,346.2,3654,518.184h-4.767l.531-171.984Z" transform="translate(-3562.437 -346.199)" fill="#659ac9"/>
        <path id="Path_933" data-name="Path 933" d="M3727.748,346.2l-.531,171.984h-4.767l.531-171.984Z" transform="translate(-3630.89 -346.199)" fill="#659ac9"/>
        <path id="Path_934" data-name="Path 934" d="M3800.978,346.2l-.531,171.984h-4.768l.531-171.984Z" transform="translate(-3699.353 -346.199)" fill="#659ac9"/>
        <path id="Path_935" data-name="Path 935" d="M3874.207,346.2l-.531,171.984h-4.767l.531-171.984Z" transform="translate(-3767.815 -346.199)" fill="#659ac9"/>
        <path id="Path_936" data-name="Path 936" d="M3947.428,346.2l-.531,171.984h-4.767l.531-171.984Z" transform="translate(-3836.268 -346.199)" fill="#659ac9"/>
        <path id="Path_937" data-name="Path 937" d="M4015.36,518.184l.531-171.984h1.353V518.184Z" transform="translate(-3904.731 -346.199)" fill="#8782e2"/>
      </g>
      <path id="Path_939" data-name="Path 939" d="M4450.665,1118.1h0a1.284,1.284,0,0,0,1.21-1.062l1.74-10.812a.873.873,0,0,0-.868-1.062h0a1.282,1.282,0,0,0-1.21,1.062l-1.74,10.812A.872.872,0,0,0,4450.665,1118.1Z" transform="translate(-4290.082 -877.382)" fill="#fff"/>
      <path id="Path_940" data-name="Path 940" d="M4391.649,1381.043h0a1.283,1.283,0,0,0,1.21-1.062l2.9-18.05a.873.873,0,0,0-.868-1.062h0a1.284,1.284,0,0,0-1.21,1.062l-2.9,18.05A.869.869,0,0,0,4391.649,1381.043Z" transform="translate(-4234.91 -1116.445)" fill="#fff"/>
      <path id="Path_941" data-name="Path 941" d="M2913.814,832.077h61.919a10.09,10.09,0,0,0,9.517-8.351l24.016-149.234c.742-4.612-2.315-8.351-6.829-8.351h-61.919a10.09,10.09,0,0,0-9.517,8.351l-24.015,149.234C2906.244,828.338,2909.3,832.077,2913.814,832.077Z" transform="translate(-2847.621 -466.944)" fill="#d5eafc"/>
      <path id="Path_942" data-name="Path 942" d="M4111.734,360.978a6.546,6.546,0,0,1-3.4-.917l-5.725-3.472a15.988,15.988,0,0,1-7.535-14.088l.238-21.187a6.92,6.92,0,0,1,5.581-6.445l16.363-3.073a11.079,11.079,0,0,1,2.043-.2,10.168,10.168,0,0,1,1.987.2l15.419,3.073a4.864,4.864,0,0,1,3.605,6.445l-6.252,21.187a23.763,23.763,0,0,1-11.849,14.088l-6.792,3.473A8.142,8.142,0,0,1,4111.734,360.978Z" transform="translate(-3958.464 -135.485)" fill="#6476ea"/>
      <path id="Path_943" data-name="Path 943" d="M4110.013,359.447a6.666,6.666,0,0,1-3.463-.934l-5.725-3.472a16.107,16.107,0,0,1-7.592-14.192l.237-21.187a7.037,7.037,0,0,1,5.679-6.56l16.362-3.073a10.774,10.774,0,0,1,4.075,0l15.427,3.072a4.812,4.812,0,0,1,3.234,2.225,5.4,5.4,0,0,1,.464,4.37l-6.254,21.187a23.885,23.885,0,0,1-11.914,14.161l-6.789,3.472A8.257,8.257,0,0,1,4110.013,359.447Zm7.564-49.374a10.956,10.956,0,0,0-2.019.191l-16.362,3.073a6.791,6.791,0,0,0-5.483,6.327l-.237,21.187a15.872,15.872,0,0,0,7.476,13.984l5.729,3.472a6.443,6.443,0,0,0,3.338.9,8.025,8.025,0,0,0,3.626-.9l6.783-3.473a23.637,23.637,0,0,0,11.791-14.015l6.255-21.187a5.158,5.158,0,0,0-.438-4.178,4.577,4.577,0,0,0-3.076-2.113l-15.42-3.073a10.072,10.072,0,0,0-1.959-.19Z" transform="translate(-3956.743 -133.834)" fill="#fff"/>
      <path id="Path_944" data-name="Path 944" d="M4133.3,380.659a5.229,5.229,0,0,1-2.717-.733l-5.725-3.469a14.766,14.766,0,0,1-6.959-13.012l.237-21.188a5.15,5.15,0,0,1,4.155-4.8l16.363-3.073a9.6,9.6,0,0,1,1.762-.166,8.758,8.758,0,0,1,1.711.167l15.42,3.073a3.621,3.621,0,0,1,2.686,4.8l-6.255,21.184a21.949,21.949,0,0,1-10.947,13.013l-6.789,3.472A6.511,6.511,0,0,1,4133.3,380.659Z" transform="translate(-3979.8 -156.632)" fill="#fff"/>
      <path id="Path_945" data-name="Path 945" d="M4180.1,363.061l-6.255,21.187a20.031,20.031,0,0,1-10.041,11.937l-6.79,3.472a4.36,4.36,0,0,1-4.236,0l-5.726-3.472a13.481,13.481,0,0,1-6.384-11.937l.238-21.187a3.385,3.385,0,0,1,2.73-3.153L4160,356.834a7.673,7.673,0,0,1,2.915,0l15.421,3.073A2.381,2.381,0,0,1,4180.1,363.061Z" transform="translate(-4001.088 -177.644)" fill="#0e3f6c"/>
      <g id="Group_511" data-name="Group 511" transform="translate(139.576 179.054)" opacity="0.6">
        <path id="Path_946" data-name="Path 946" d="M4160,356.886l-16.363,3.073a3.385,3.385,0,0,0-2.73,3.153l-.238,21.187a13.478,13.478,0,0,0,6.384,11.937l5.726,3.472a3.871,3.871,0,0,0,1.888.544l6.666-43.5A8.022,8.022,0,0,0,4160,356.886Z" transform="translate(-4140.665 -356.75)" fill="#a6bdff"/>
      </g>
      <path id="Path_947" data-name="Path 947" d="M3689.165,213.961l-1.307,8.526h-7.751l-1.187,7.751h-8.526l1.188-7.751h-7.751l1.306-8.526h7.751l1.188-7.751h8.526l-1.188,7.751Z" transform="translate(-3519.324 -19.116)" fill="#fff"/>
      <g transform="matrix(1, 0, 0, 1, -97.89, 166.63)" filter="url(#Path_948)">
        <path id="Path_948-2" data-name="Path 948" d="M2158.662,391.47h18.389a11.292,11.292,0,0,1,11.292,11.292v11.291h-29.681a11.292,11.292,0,0,1-11.292-11.292h0a11.292,11.292,0,0,1,11.292-11.291Z" transform="translate(-2003.7 -358.94)" fill="#fff"/>
      </g>
      <circle id="Ellipse_22" data-name="Ellipse 22" cx="1.84" cy="1.84" r="1.84" transform="translate(58.809 209.284)" fill="#659ac9"/>
      <circle id="Ellipse_23" data-name="Ellipse 23" cx="1.84" cy="1.84" r="1.84" transform="translate(64.621 209.284)" fill="#659ac9"/>
      <circle id="Ellipse_24" data-name="Ellipse 24" cx="1.84" cy="1.84" r="1.84" transform="translate(70.433 209.284)" fill="#659ac9"/>
      <g id="Group_515" data-name="Group 515" transform="translate(30.323 217.002)" clip-path="url(#clip-path-2)">
        <path id="Path_949" data-name="Path 949" d="M3299.122,2419.83a23.954,23.954,0,0,0,5.264.366c3.047-.077,6.064-.521,9.095-.8.12-.011.24-.019.36-.028l-1.229-53.564,3.309.736,4.109,52.8a38.337,38.337,0,0,0,5.067-.15c1.979-.22,3.94-.57,5.9-.9,1.122-.186,2.247-.337,3.372-.488l-2.507-71.865-34.33-.541s-1.286,13.423,0,44.311C3297.941,2399.463,3298.52,2409.99,3299.122,2419.83Z" transform="translate(-3242.636 -2253.882)" fill="#0e3f6c"/>
        <path id="Path_950" data-name="Path 950" d="M3676.694,3385.2a.144.144,0,0,1-.006-.287l6.618-.277a.149.149,0,0,1,.15.138.144.144,0,0,1-.138.149l-6.618.276Z" transform="translate(-3597.518 -3225.464)" fill="#fff"/>
        <path id="Path_951" data-name="Path 951" d="M3364.032,3384.812H3358.8a.144.144,0,1,1,0-.287h5.24a.144.144,0,1,1,0,.287Z" transform="translate(-3300.3 -3225.357)" fill="#fff"/>
        <path id="Path_952" data-name="Path 952" d="M3793.486,2509.1a.143.143,0,0,1-.143-.138l-2.656-63.551a.143.143,0,0,1,.137-.15.145.145,0,0,1,.15.137l2.655,63.551a.144.144,0,0,1-.137.149Z" transform="translate(-3704.218 -2347.24)" fill="#fff"/>
        <path id="Path_953" data-name="Path 953" d="M2511.926,1717.556l-2.879-3.523c-.349-.516-1.956-.762-2.534-.789l-7.594-.7-7.019-2.66h0a1.535,1.535,0,0,1,1.771-1.407l5.653,1.4,11.466-2.228a2.366,2.366,0,0,1,1.86.419h0a10.677,10.677,0,0,1,3.242,3.7l.8,1.44Z" transform="translate(-2489.986 -1657.606)" fill="#fcc5b6"/>
        <path id="Path_954" data-name="Path 954" d="M2540.631,1675.763l-4.762-2.089-1.643-2.074a1.5,1.5,0,0,0-1.947-.4l-.149.083,2.357,3.77,4.031,1.75Z" transform="translate(-2527.596 -1623.388)" fill="#fcc5b6"/>
        <path id="Path_955" data-name="Path 955" d="M2679.909,1658.739l-3.616-1.915-5.177-1.924h0a1.782,1.782,0,0,0,.622,2.214l1.455.835.29,3.229,7.75-.869Z" transform="translate(-2657.395 -1608.335)" fill="#fcc5b6"/>
        <path id="Path_956" data-name="Path 956" d="M2505.044,1753.135l-6.953.763h0a1.4,1.4,0,0,1,.916-1.722l5.2-1.216,2.088,1.682Z" transform="translate(-2495.729 -1698.141)" fill="#fcc5b6"/>
        <path id="Path_957" data-name="Path 957" d="M2637.818,1719.441a.18.18,0,0,1-.042-.354l4.6-1.1a5.059,5.059,0,0,1,2.861.143l1.68.592a.18.18,0,1,1-.12.339l-1.679-.592a4.706,4.706,0,0,0-2.659-.13l-4.6,1.1A.193.193,0,0,1,2637.818,1719.441Z" transform="translate(-2626.237 -1667.183)" fill="#1a1a1a"/>
        <path id="Path_958" data-name="Path 958" d="M2805.223,1662.92l-9.394,20.26-6.62-7.565a26.88,26.88,0,0,0-5.581-4.838l-1.2-.777h0a8.973,8.973,0,0,1-4.954,3.961l-.447.145.644,1.933a26.9,26.9,0,0,0,2.95,6.129l9.815,15.131a7.127,7.127,0,0,0,4.791,3.148l.106.018a7.758,7.758,0,0,0,7.9-3.557c4.025-6.491,11.072-17.832,11.072-17.832l-1.4-14.694Z" transform="translate(-2756.552 -1615.833)" fill="#fff"/>
        <path id="Path_959" data-name="Path 959" d="M2815.994,1838.729a.174.174,0,0,1-.051-.34,11.583,11.583,0,0,0,6.836-5.655.174.174,0,1,1,.308.162,11.933,11.933,0,0,1-7.039,5.825A.166.166,0,0,1,2815.994,1838.729Z" transform="translate(-2792.818 -1774.497)" fill="#6476ea"/>
        <path id="Path_960" data-name="Path 960" d="M3064.895,1972.68a.171.171,0,0,1-.136-.065,26.37,26.37,0,0,0-3.375-3.575.174.174,0,1,1,.229-.26,26.641,26.641,0,0,1,3.418,3.622.173.173,0,0,1-.137.281Z" transform="translate(-3022.339 -1901.739)" fill="#6476ea"/>
        <path id="Path_961" data-name="Path 961" d="M3208.59,1548.393c-.014-1.48.12-2.973.149-4.271q.086-3.7.173-7.411c0-3.655.171-7.318.256-10.972.083-3.56.62-7.416.017-10.929-.47-2.74-2.751-4.65-5.375-5.52a12.853,12.853,0,0,1,2.05-3.8c2.388-2.988,6.263-4.27,9.916-5.407,4.237-1.318,8.563-2.648,13-2.571a21.21,21.21,0,0,1,6.009.993c2.569,1.237,5.362,1.215,8.068,2.148,3.51,1.213,7.063,2.795,9.432,5.654,2.214,2.676,3.144,6.974,4.01,10.342,2.244,8.713,4.14,13.892,4.219,22.891.025,2.842-.266,5.924-2.176,8.029a8.605,8.605,0,0,1-6.366,2.492,41.972,41.972,0,0,1-6.727-.207c.26,1.23.268,5.284-.7,6.054a7.148,7.148,0,0,1-3.469,1.2,77.9,77.9,0,0,1-24.965-.561c-2.079-.365-4.28-.871-5.745-2.39C3208.943,1552.684,3208.61,1550.551,3208.59,1548.393Z" transform="translate(-3155.548 -1461.192)" fill="#fff"/>
        <path id="Path_962" data-name="Path 962" d="M3821.144,1592.593a.174.174,0,0,1-.165-.228,12.5,12.5,0,0,1,3.52-5.378.174.174,0,0,1,.232.26,12.157,12.157,0,0,0-3.422,5.229A.174.174,0,0,1,3821.144,1592.593Z" transform="translate(-3732.531 -1544.802)" fill="#6476ea"/>
        <path id="Path_963" data-name="Path 963" d="M3460.5,1336.76l2.078,12.625a6.311,6.311,0,0,1-.716,2.882h0a6.014,6.014,0,0,1-8.022,2.564h0a3.45,3.45,0,0,1-1.9-2.814l-2.409-12.064Z" transform="translate(-3385.271 -1310.906)" fill="#fcc5b6"/>
        <path id="Path_964" data-name="Path 964" d="M3393.425,1508.773a4.889,4.889,0,0,1-4.1-1.875c-.305-.361-1.125-1.128-1.176-1.165a5.8,5.8,0,0,1-.846.406c-1.9.732-1.912,1.218-2.033,1.931a49.6,49.6,0,0,0-1.219,7.183c-.085,1.147-2.77,49.208-1.628,49.328,1.857.2,16.895,1.51,18.566.678,1.416-.705,1.785-54.937,1.627-56.509-.226-2.236-1.265-2.734-3.117-3.49a16.6,16.6,0,0,1-1.5,1.639A6.37,6.37,0,0,1,3393.425,1508.773Z" transform="translate(-3322.267 -1468.437)" fill="#a6bdff"/>
        <path id="Path_965" data-name="Path 965" d="M3466.686,1533.861l-.2-.169a10.144,10.144,0,0,1-3.5-6.542.173.173,0,0,1,.344-.039,9.8,9.8,0,0,0,3.186,6.146,17.891,17.891,0,0,1,1.2-2.813.173.173,0,1,1,.306.163,17.563,17.563,0,0,0-1.258,3Z" transform="translate(-3397.848 -1488.722)" fill="#382a73"/>
        <path id="Path_966" data-name="Path 966" d="M3533.042,1630.792h0a.173.173,0,0,1-.169-.179c.082-2.853.231-5.767.375-8.586s.292-5.729.374-8.579a.174.174,0,0,1,.174-.169h0a.174.174,0,0,1,.169.179c-.083,2.853-.231,5.767-.374,8.586s-.292,5.729-.375,8.579A.175.175,0,0,1,3533.042,1630.792Z" transform="translate(-3463.184 -1569.424)" fill="#382a73"/>
        <path id="Path_967" data-name="Path 967" d="M3635.193,1517.21a142.07,142.07,0,0,0-3.659,29.947c-.359,15.551,1.711,60.563,2.2,70.907a1.927,1.927,0,0,0,2.213,1.814l13.272-2.027a2.67,2.67,0,0,0,2.266-2.753l-2.174-51.594-5.853-30.709-.813-13.687Z" transform="translate(-3555.387 -1479.609)" fill="#fff"/>
        <path id="Path_968" data-name="Path 968" d="M3560.218,1540.21l-.042-.239a5.173,5.173,0,0,0-1.463-2.785.174.174,0,0,1,.244-.248,5.537,5.537,0,0,1,1.515,2.734,13.181,13.181,0,0,0,5.423-5.941.173.173,0,1,1,.315.144,13.528,13.528,0,0,1-5.779,6.218Z" transform="translate(-3487.297 -1494.959)" fill="#382a73"/>
        <path id="Path_969" data-name="Path 969" d="M3285.992,1517.21s-1.9,10.57-1.49,29.542c.361,16.848.722,61.8.8,71.657a1.557,1.557,0,0,1-1.874,1.537l-6.56-1.36a3.332,3.332,0,0,1-2.656-3.268l.13-90.519,4.641-5.421Z" transform="translate(-3221.365 -1479.609)" fill="#fff"/>
        <g id="Group_512" data-name="Group 512" transform="translate(58.461 84.218)" opacity="0.22">
          <path id="Path_970" data-name="Path 970" d="M3360.48,2236.862l.61,2.914,25.929-.136-.226-1.671s4.449,2.755,7.161,3.433l2.44.61-.271-5.421-7.928-3.32-21.21,1.219Z" transform="translate(-3360.48 -2233.27)" fill="#5c49d8"/>
        </g>
        <path id="Path_971" data-name="Path 971" d="M3366.109,1599.851h-.007a.172.172,0,0,1-.167-.18c.357-9.635-2.947-45.332-2.981-45.692l-.012-.135,1.817-.632-2.1-1.051,3.733-17.928a.174.174,0,0,1,.34.071l-3.677,17.667,2.6,1.3-2.34.811c.224,2.432,3.316,36.246,2.97,45.6A.174.174,0,0,1,3366.109,1599.851Z" transform="translate(-3304.056 -1495.403)" fill="#6476ea"/>
        <path id="Path_972" data-name="Path 972" d="M3271.085,1832.913a.174.174,0,0,1-.174-.171c-.024-1.519-.057-4.143-.09-6.681-.033-2.559-.065-5.208-.091-6.735a.174.174,0,0,1,.171-.177h0a.174.174,0,0,1,.174.171c.024,1.531.058,4.177.09,6.736.033,2.539.065,5.161.09,6.68a.173.173,0,0,1-.171.177Z" transform="translate(-3218.112 -1761.892)" fill="#6476ea"/>
        <path id="Path_973" data-name="Path 973" d="M3310.963,1764.08a241.557,241.557,0,0,0,4.569,34.65c-8.572.372-16.772.552-25.345.924a214.678,214.678,0,0,1-4.188-34.864C3294.174,1763.952,3302.748,1764.136,3310.963,1764.08Z" transform="translate(-3232.387 -1710.407)" fill="#0e3f6c"/>
        <path id="Path_974" data-name="Path 974" d="M3359.54,1842.685a151.911,151.911,0,0,0,15.387-.6c.13.624.185,1.644.313,2.267a138.025,138.025,0,0,1-15.39.762C3359.727,1844.123,3359.665,1843.711,3359.54,1842.685Z" transform="translate(-3301.14 -1783.338)" fill="#fff"/>
        <path id="Path_975" data-name="Path 975" d="M3660.849,1596.3a.173.173,0,0,1-.173-.172c-.065-11.3,3.142-42.746,3.375-45.018l-1.505-.639a.4.4,0,0,1,.058-.749l1.377-.344c-.444-4.725.076-18.906.082-19.05a.173.173,0,1,1,.346.013c-.005.146-.536,14.608-.068,19.151l.015.15-1.668.417a.05.05,0,0,0-.037.044.049.049,0,0,0,.03.049l1.741.739-.014.13c-.034.333-3.454,33.463-3.385,45.108a.174.174,0,0,1-.172.175Z" transform="translate(-3582.67 -1491.714)" fill="#6476ea"/>
        <path id="Path_976" data-name="Path 976" d="M3253.283,1970.69l-3.292-1.623a5.061,5.061,0,0,1-1.517-1.144l-2.326-2.572a.475.475,0,0,0-.716.012h0a2.083,2.083,0,0,0-.222,2.374l2.31,3.37a.184.184,0,0,1-.151.287l-7.3.008-2.063-.035a.615.615,0,0,0-.625.648l.01.2a1.507,1.507,0,0,0,1.057,1.359l.716.224,1.791,5.022a3.943,3.943,0,0,0,3.594,2.616l13.625-.316.846-7.791Z" transform="translate(-3186.929 -1898.427)" fill="#fcc5b6"/>
        <path id="Path_977" data-name="Path 977" d="M3553,2051.87l-9.752.7-8.347,1.23.521,1.932a6.139,6.139,0,0,1-.456,4.395l-1.032,2.021,7.031,2.636a58.841,58.841,0,0,0,8.854,2.484c3.591.542,8.47,1.084,8.47,1.084l5.624-4.066-9.236-8.992Z" transform="translate(-3464.177 -1979.461)" fill="#fff"/>
        <path id="Path_978" data-name="Path 978" d="M3294.725,2113.513a.173.173,0,0,1-.162-.113l-2.09-5.6a.174.174,0,1,1,.326-.121l2.09,5.6a.173.173,0,0,1-.1.223A.169.169,0,0,1,3294.725,2113.513Z" transform="translate(-3238.426 -2031.526)"/>
        <path id="Path_979" data-name="Path 979" d="M3392.488,2055.188a.845.845,0,0,1-.1,0,.173.173,0,0,1,.025-.346,1.147,1.147,0,0,0,.761-.229.173.173,0,0,1,.21.275A1.492,1.492,0,0,1,3392.488,2055.188Z" transform="translate(-3331.7 -1981.989)"/>
        <path id="Path_980" data-name="Path 980" d="M3718.383,2051.332h-.022a56.075,56.075,0,0,0-12.879-.342.173.173,0,0,1-.034-.345,56.421,56.421,0,0,1,12.956.343.173.173,0,1,1-.021.345Z" transform="translate(-3624.382 -1978.101)" fill="#6476ea"/>
        <path id="Path_981" data-name="Path 981" d="M3629.6,2093.843a.174.174,0,0,1-.154-.253,8.994,8.994,0,0,0-.045-8.188.173.173,0,0,1,.307-.161,9.356,9.356,0,0,1,.047,8.508A.173.173,0,0,1,3629.6,2093.843Z" transform="translate(-3553.416 -2010.573)" fill="#6476ea"/>
        <path id="Path_982" data-name="Path 982" d="M3572.8,2186.727a.689.689,0,0,1-.456-.2h0a1.148,1.148,0,0,1-.342-.728.758.758,0,0,1,.526-.864.71.71,0,0,1,.863.424,1.156,1.156,0,0,1-.282,1.262A.527.527,0,0,1,3572.8,2186.727Zm-.225-.461c.2.175.294.1.33.077a.837.837,0,0,0,.172-.84.364.364,0,0,0-.451-.234.41.41,0,0,0-.278.483A.815.815,0,0,0,3572.571,2186.266Z" transform="translate(-3499.758 -2103.837)" fill="#6476ea"/>
        <path id="Path_983" data-name="Path 983" d="M3346.33,1063.763a6.021,6.021,0,0,1,4.574-2.13,14.983,14.983,0,0,1,9.811,2.656,8.325,8.325,0,0,1,2.539,2.631c1.163,2.074.943,4.655,1.683,6.9a2.038,2.038,0,0,1,.9-.182,2.641,2.641,0,0,1,2.055,1.245,4.094,4.094,0,0,1,.578,2.392,3.729,3.729,0,0,1-1.076,2.617c-.984.9-2.447.954-3.776.963a8.941,8.941,0,0,1-2.7,6.48,10.069,10.069,0,0,1-7.189,3.141,5.933,5.933,0,0,1-5.63-3.5,17.284,17.284,0,0,1-1.336-6.368q-.566-7.054-1.133-14.108A4.3,4.3,0,0,1,3346.33,1063.763Z" transform="translate(-3288.124 -1053.644)" fill="#fcc5b6"/>
        <path id="Path_984" data-name="Path 984" d="M3473.5,1229.57a2.42,2.42,0,0,1,.852.216.609.609,0,0,1,.385.586c-.053.308-.45.521-.831.638a7.9,7.9,0,0,1-2.85.206,1.929,1.929,0,0,1-1.232-.376.58.58,0,0,1,.036-.827,1.228,1.228,0,0,1,.667-.251A9.364,9.364,0,0,1,3473.5,1229.57Z" transform="translate(-3404.103 -1210.652)" fill="#382a73"/>
        <path id="Path_985" data-name="Path 985" d="M3360.052,1243.571a2.53,2.53,0,0,0-.815.317.569.569,0,0,0-.3.6c.094.283.515.428.908.488a8.367,8.367,0,0,0,2.852-.188,1.985,1.985,0,0,0,1.172-.521.53.53,0,0,0-.147-.772,1.283,1.283,0,0,0-.695-.147A9.969,9.969,0,0,0,3360.052,1243.571Z" transform="translate(-3300.556 -1223.556)" fill="#382a73"/>
        <path id="Path_986" data-name="Path 986" d="M3510.8,1283.537c.032.465.284.826.563.807s.479-.412.447-.877-.284-.827-.563-.808S3510.77,1283.072,3510.8,1283.537Z" transform="translate(-3442.551 -1260.328)" fill="#0a1747"/>
        <ellipse id="Ellipse_25" data-name="Ellipse 25" cx="0.506" cy="0.844" rx="0.506" ry="0.844" transform="translate(60.922 22.927) rotate(-3.95)" fill="#0a1747"/>
        <path id="Path_987" data-name="Path 987" d="M3460.7,1361.818a.162.162,0,0,1,0-.322,4.279,4.279,0,0,0,3.515-2.071.161.161,0,0,1,.278.163,4.6,4.6,0,0,1-3.788,2.23Z" transform="translate(-3395.568 -1332.022)"/>
        <path id="Path_988" data-name="Path 988" d="M3486.514,1388.36a.161.161,0,0,1-.01-.322,9.143,9.143,0,0,0,8.459-7.631.161.161,0,0,1,.318.053,9.466,9.466,0,0,1-8.757,7.9Z" transform="translate(-3419.693 -1351.591)"/>
        <path id="Path_989" data-name="Path 989" d="M3357.573,1035.9c-1.85-2.519-3.519-6.041-5.369-8.559a53.967,53.967,0,0,0-13.7.9c-1.024-1.474-.625-3.639.43-5.091a8.553,8.553,0,0,1,4.3-3.2,13.488,13.488,0,0,1,11.858,1.452,8.6,8.6,0,0,1,2.663,3.107,14.048,14.048,0,0,1,1.375,4.159,11.634,11.634,0,0,1,.289,3.359C3359.3,1033.155,3358.512,1035.274,3357.573,1035.9Z" transform="translate(-3280.92 -1014.024)" fill="#382a73"/>
        <path id="Path_990" data-name="Path 990" d="M3558.45,1249.019a.137.137,0,0,1-.048-.264c1.829-.695,3.39-1.379,5.042-2.1a.137.137,0,1,1,.109.25c-1.655.726-3.219,1.412-5.055,2.109A.142.142,0,0,1,3558.45,1249.019Z" transform="translate(-3486.973 -1226.65)" fill="#5c49d8"/>
        <g id="Group_513" data-name="Group 513" transform="translate(64.91 19.451)" opacity="0.49">
          <circle id="Ellipse_26" data-name="Ellipse 26" cx="2.98" cy="2.98" r="2.98" transform="translate(0 1.815) rotate(-17.73)" fill="#fff"/>
        </g>
        <g id="Group_514" data-name="Group 514" transform="translate(57.324 20.192)" opacity="0.49">
          <circle id="Ellipse_27" data-name="Ellipse 27" cx="2.98" cy="2.98" r="2.98" transform="translate(0 1.815) rotate(-17.73)" fill="#fff"/>
        </g>
        <path id="Path_991" data-name="Path 991" d="M3423.361,1277.871a2.628,2.628,0,0,1-.4.6,7.067,7.067,0,0,0-.977,1.677.893.893,0,0,0-.092.428.846.846,0,0,0,.325.5,6.366,6.366,0,0,0,1.582.906.525.525,0,0,0,.446.055.445.445,0,0,0,.174-.408c.007-.723-.236-1.428-.246-2.148-.008-.593.141-1.182.122-1.775a1.1,1.1,0,0,0-.13-.548.552.552,0,0,0-.491-.276c-.192.014-.373.185-.326.367A.91.91,0,0,1,3423.361,1277.871Z" transform="translate(-3359.431 -1254.923)" fill="#fcc5b6"/>
        <path id="Path_992" data-name="Path 992" d="M3421.658,1279.236a.161.161,0,0,1-.089-.027l-1.527-1.016a1.15,1.15,0,0,1-.355-1.54l1.232-2.1a.816.816,0,0,0,.031-.766.161.161,0,1,1,.29-.141,1.136,1.136,0,0,1-.043,1.07l-1.232,2.1a.827.827,0,0,0,.255,1.107l1.528,1.016a.161.161,0,0,1-.09.3Z" transform="translate(-3357.223 -1251.815)"/>
        <path id="Path_993" data-name="Path 993" d="M3429.368,1280.786a.137.137,0,0,1-.065-.257,3.659,3.659,0,0,1,3.139-.174.137.137,0,1,1-.1.252,3.428,3.428,0,0,0-2.9.162A.14.14,0,0,1,3429.368,1280.786Z" transform="translate(-3366.295 -1257.919)" fill="#5c49d8"/>
        <path id="Path_994" data-name="Path 994" d="M3618.309,1247.223a1.507,1.507,0,0,0-1.361,1.568,1.868,1.868,0,0,0,.237,1.188,1.652,1.652,0,0,0,.918.622,2.543,2.543,0,0,0,1.92-.2,1.285,1.285,0,0,0,.615-.628,1.705,1.705,0,0,0-.011-.928q-.1-.5-.2-1c-.043-.214-.057-.5-.285-.591A3.373,3.373,0,0,0,3618.309,1247.223Z" transform="translate(-3541.781 -1227.097)" fill="#fcc5b6"/>
        <path id="Path_995" data-name="Path 995" d="M3635.251,1280.865a.162.162,0,0,1-.16-.145,2.575,2.575,0,0,0-1.505-2.062.161.161,0,0,1,.13-.3,2.905,2.905,0,0,1,1.7,2.324.161.161,0,0,1-.144.177Z" transform="translate(-3557.254 -1256.298)"/>
        <path id="Path_996" data-name="Path 996" d="M3819.65,1869.439a.174.174,0,0,1-.17-.143l-2.114-11.6a.173.173,0,1,1,.341-.065l2.114,11.6a.172.172,0,0,1-.139.2Z" transform="translate(-3729.157 -1797.738)" fill="#6476ea"/>
        <path id="Path_997" data-name="Path 997" d="M3576.586,2469.908a.157.157,0,0,1-.157-.141,114.994,114.994,0,0,1-.493-12.07.157.157,0,0,1,.157-.157h0a.158.158,0,0,1,.157.157,114.94,114.94,0,0,0,.492,12.037.158.158,0,0,1-.141.173Z" transform="translate(-3503.447 -2358.721)" fill="#fff"/>
        <path id="Path_998" data-name="Path 998" d="M3500.008,2468.592a.158.158,0,0,1-.155-.13c-.757-3.93-1.337-7.943-1.724-11.926a.158.158,0,1,1,.314-.031c.385,3.971.964,7.976,1.72,11.9a.158.158,0,0,1-.125.185A.152.152,0,0,1,3500.008,2468.592Z" transform="translate(-3430.706 -2357.621)" fill="#fff"/>
        <path id="Path_999" data-name="Path 999" d="M3710.462,2445.477a.164.164,0,0,1-.048-.008,9.368,9.368,0,0,1-5.659-6.972.157.157,0,1,1,.31-.055,9.037,9.037,0,0,0,5.446,6.727.158.158,0,0,1-.049.308Z" transform="translate(-3623.878 -2340.745)" fill="#fff"/>
        <path id="Path_1000" data-name="Path 1000" d="M3299.541,2423.62a.157.157,0,0,1-.1-.28,8.789,8.789,0,0,0,3.163-6.274.156.156,0,0,1,.165-.15.158.158,0,0,1,.15.166,9.109,9.109,0,0,1-3.278,6.5A.159.159,0,0,1,3299.541,2423.62Z" transform="translate(-3244.899 -2320.741)" fill="#fff"/>
      </g>
      <path id="Path_1002" data-name="Path 1002" d="M3068.658,2739.615h-55.523a3.664,3.664,0,0,1-3.7-4.411l3.12-19.482a5.38,5.38,0,0,1,5.118-4.411h55.524a3.664,3.664,0,0,1,3.7,4.411l-3.12,19.482A5.38,5.38,0,0,1,3068.658,2739.615Z" transform="translate(-2943.448 -2378.968)" fill="#fff"/>
      <rect id="Rectangle_350" data-name="Rectangle 350" width="42.522" height="0.266" transform="translate(83.412 332.209)" fill="#6476ea"/>
      <path id="Path_1003" data-name="Path 1003" d="M3143.293,2787.162c-2.669,5.055-7.677,8.378-12.519,10.993-4.005-2.615-8-5.938-9.053-10.993a8.239,8.239,0,0,1,.788-5.9,6.628,6.628,0,0,1,6.12-3.155,6.443,6.443,0,0,1,4.789,3.373,9.7,9.7,0,0,1,5.87-3.373,4.634,4.634,0,0,1,5.109,3.155C3144.911,2783.092,3144.286,2785.28,3143.293,2787.162Z" transform="translate(-3048.28 -2441.389)" fill="#e5184e"/>
      <path id="Path_1004" data-name="Path 1004" d="M3141.611,2872.026h-.025a.169.169,0,0,1-.144-.161l-.391-9.272-1.758,4.59a.171.171,0,0,1-.159.109h-6.86a.17.17,0,0,1,0-.34h6.745l2.008-5.25a.17.17,0,0,1,.329.053l.391,9.222,2.589-7.259a.17.17,0,0,1,.33.052l.136,4.553.964-1.411a.171.171,0,0,1,.141-.074h6.2a.171.171,0,0,1,0,.341H3146l-1.209,1.769a.17.17,0,0,1-.311-.09l-.124-4.174-2.579,7.232A.171.171,0,0,1,3141.611,2872.026Z" transform="translate(-3058.196 -2519.466)" fill="#fff"/>
      <path id="Path_1005" data-name="Path 1005" d="M3586.745,2862.492H3564.81a1.158,1.158,0,0,1-1.172-1.4h0a1.7,1.7,0,0,1,1.619-1.4h21.935a1.159,1.159,0,0,1,1.172,1.4h0A1.7,1.7,0,0,1,3586.745,2862.492Z" transform="translate(-3461.611 -2517.698)" fill="#659ac9"/>
      <path id="Path_1006" data-name="Path 1006" d="M3567.58,2951.322h-17a1.159,1.159,0,0,1-1.172-1.4h0a1.7,1.7,0,0,1,1.62-1.4h17a1.159,1.159,0,0,1,1.172,1.4h0A1.7,1.7,0,0,1,3567.58,2951.322Z" transform="translate(-3448.31 -2600.745)" fill="#659ac9"/>
    </g>
  </g>
</svg>
